<svg xmlns="http://www.w3.org/2000/svg" viewBox="0 0 76.48 76.48"><defs><style>.cls-1{fill:none;stroke:#0effff;stroke-miterlimit:10;stroke-width:1.56px;}.cls-2{fill:#0effff;}</style></defs><title>Asset 60</title><g id="Layer_2" data-name="Layer 2"><g id="Layer_1-2" data-name="Layer 1"><circle class="cls-1" cx="38.24" cy="38.24" r="37.46"/><path class="cls-2" d="M57.17,29.36V45a.68.68,0,0,1-1.31.26L50.11,31.45a3.4,3.4,0,0,0-6.54,1.31V45a.68.68,0,0,1-1.31.26L36.5,31.45A3.4,3.4,0,0,0,30,32.76V44.33a1.36,1.36,0,0,1-1.36,1.36H23a6.8,6.8,0,1,1,0-13.61h4.26V29.36H23a9.53,9.53,0,1,0,0,19.05h5.62a4.09,4.09,0,0,0,4.08-4.08V32.76A.68.68,0,0,1,34,32.5l5.76,13.82A3.4,3.4,0,0,0,46.28,45V32.76a.68.68,0,0,1,1.31-.26l5.76,13.82A3.4,3.4,0,0,0,59.89,45V29.36Z"/></g></g></svg>