<svg xmlns="http://www.w3.org/2000/svg" xmlns:xlink="http://www.w3.org/1999/xlink" viewBox="0 0 371.99 150.22"><defs><style>.cls-1,.cls-2{fill:#0effff;}.cls-1{opacity:0.21;}.cls-3,.cls-4{fill:none;stroke-miterlimit:10;}.cls-3{stroke-width:1.68px;stroke:url(#linear-gradient);}.cls-4{stroke:#0effff;stroke-width:2.74px;}</style><linearGradient id="linear-gradient" y1="84.25" x2="371.99" y2="84.25" gradientUnits="userSpaceOnUse"><stop offset="0" stop-color="#0effff" stop-opacity="0"/><stop offset="0.13" stop-color="#0effff" stop-opacity="0.1"/><stop offset="0.4" stop-color="#0effff" stop-opacity="0.36"/><stop offset="0.78" stop-color="#0effff" stop-opacity="0.76"/><stop offset="1" stop-color="#0effff"/></linearGradient></defs><title>Asset 30</title><g id="Layer_2" data-name="Layer 2"><g id="Layer_1-2" data-name="Layer 1"><circle class="cls-1" cx="188.89" cy="19.87" r="7.1" transform="translate(-0.92 26.61) rotate(-8.04)"/><circle class="cls-1" cx="188.89" cy="19.87" r="5.35" transform="translate(-0.92 26.61) rotate(-8.04)"/><circle class="cls-1" cx="188.89" cy="19.87" r="3.94" transform="translate(-0.92 26.61) rotate(-8.04)"/><circle class="cls-2" cx="188.89" cy="19.87" r="1.83" transform="translate(-0.92 26.61) rotate(-8.04)"/><path class="cls-3" d="M0,19.13c46.5,0,46.5,130.25,93,130.25s46.5-130.25,93-130.25,46.5,130.25,93,130.25,46.5-130.25,93-130.25"/><circle class="cls-4" cx="189.74" cy="20.53" r="19.16" transform="translate(-0.38 3.85) rotate(-1.16)"/><rect class="cls-2" x="193.2" y="52.21" width="27.45" height="6.57" rx="3.29" ry="3.29" transform="translate(166.12 -154.82) rotate(64.01)"/></g></g></svg>