<svg xmlns="http://www.w3.org/2000/svg" viewBox="0 0 110.54 93.78"><defs><style>.cls-1,.cls-2{font-size:12.03px;}.cls-1,.cls-2,.cls-6{fill:#0effff;}.cls-1{font-family:Montserrat-Medium, Montserrat;}.cls-2{font-family:Montserrat-Light, Montserrat;}.cls-3{letter-spacing:-0.02em;}.cls-4{letter-spacing:-0.02em;}.cls-5,.cls-7,.cls-8{fill:none;stroke:#0effff;stroke-miterlimit:10;}.cls-5{stroke-width:0.56px;}.cls-8{stroke-linecap:round;}</style></defs><title>Asset 16</title><g id="Layer_2" data-name="Layer 2"><g id="Layer_1-2" data-name="Layer 1"><text class="cls-1" transform="translate(35.71 11.5)">SEC</text><text class="cls-2" transform="translate(35.91 24.07)">I<tspan class="cls-3" x="3.48" y="0">n</tspan><tspan class="cls-4" x="11.06" y="0">v</tspan><tspan x="16.76" y="0">estigation</tspan></text><circle class="cls-5" cx="13.74" cy="13.74" r="13.46"/><path class="cls-6" d="M11.65,14.41a.23.23,0,0,0,.23.23h.92a.23.23,0,0,0,.23-.23V13a.23.23,0,0,0-.23-.23h-.92a.23.23,0,0,0-.23.23Zm.46-1.15h.46v.92h-.46Zm0,0"/><path class="cls-6" d="M11.88,11.87h.92a.23.23,0,0,0,.23-.23V10.26A.23.23,0,0,0,12.8,10h-.92a.23.23,0,0,0-.23.23v1.38a.23.23,0,0,0,.23.23Zm.23-1.38h.46v.92h-.46Zm0,0"/><path class="cls-6" d="M10.15,10.22l3.34-2,3.34,2a.23.23,0,1,0,.24-.4l-3.35-2V6.33h1.15V6.8h-.69a.23.23,0,1,0,0,.46h.92A.23.23,0,0,0,15.34,7V6.1a.23.23,0,0,0-.23-.23H13.49a.23.23,0,0,0-.23.23V7.82l-3.35,2a.23.23,0,1,0,.24.4Zm0,0"/><path class="cls-6" d="M9.11,14.64a.23.23,0,0,0,.23-.23V13a.23.23,0,0,0-.23-.23H8.19A.23.23,0,0,0,8,13v.46a.23.23,0,0,0,.46,0v-.23h.46v1.15a.23.23,0,0,0,.23.23Zm0,0"/><path class="cls-6" d="M10.73,17.64V10.95a.23.23,0,1,0-.46,0v6.69a.23.23,0,1,0,.46,0Zm0,0"/><path class="cls-6" d="M9.57,18.79h7.84a.23.23,0,1,0,0-.46H15.34V16h.23a.23.23,0,1,0,0-.46H11.42a.23.23,0,0,0,0,.46h.23v2.31H9.57a.23.23,0,0,0,0,.46Zm4.15-1.38a.23.23,0,1,0,0-.46V16h1.15v2.31H13.73ZM12.11,16h1.15v.92a.23.23,0,0,0,0,.46v.92H12.11Zm0,0"/><path class="cls-6" d="M18.8,15.79h-.92a.23.23,0,0,0-.23.23v1.38a.23.23,0,0,0,.23.23h.92a.23.23,0,0,0,.23-.23V16a.23.23,0,0,0-.23-.23Zm-.23,1.38h-.46v-.92h.46Zm0,0"/><path class="cls-6" d="M18.8,13h-.92a.23.23,0,0,0-.23.23v1.38a.23.23,0,0,0,.23.23h.92a.23.23,0,0,0,.23-.23V13.26A.23.23,0,0,0,18.8,13Zm-.23,1.38h-.46v-.92h.46Zm0,0"/><path class="cls-6" d="M18.34,19.26H8.65a.23.23,0,0,0,0,.46h9.69a.23.23,0,0,0,0-.46Zm0,0"/><path class="cls-6" d="M20.19,10.95a.23.23,0,0,0-.23.23v.23H17.42a.23.23,0,1,0,0,.46H20v7.61a.23.23,0,0,0,.46,0V11.18a.23.23,0,0,0-.23-.23Zm0,0"/><path class="cls-6" d="M14,14.41a.23.23,0,0,0,.23.23h.92a.23.23,0,0,0,.23-.23V13a.23.23,0,0,0-.23-.23h-.92A.23.23,0,0,0,14,13Zm.46-1.15h.46v.92h-.46Zm0,0"/><path class="cls-6" d="M8.88,17.18s0-3-1.15-3-1.15,3-1.15,3a1.16,1.16,0,0,0,.92,1.13v1.18a.23.23,0,1,0,.46,0V18.31a1.16,1.16,0,0,0,.92-1.13Zm-1.15.69A.69.69,0,0,1,7,17.18c0-1.15.31-2.54.69-2.54s.69,1.39.69,2.54a.69.69,0,0,1-.69.69Zm0,0"/><path class="cls-6" d="M16.72,17.64V10.72a.23.23,0,0,0-.46,0v6.92a.23.23,0,1,0,.46,0Zm0,0"/><path class="cls-6" d="M14.19,11.87h.92a.23.23,0,0,0,.23-.23V10.26a.23.23,0,0,0-.23-.23h-.92a.23.23,0,0,0-.23.23v1.38a.23.23,0,0,0,.23.23Zm.23-1.38h.46v.92h-.46Zm0,0"/><path class="cls-6" d="M6.8,13.95A.23.23,0,0,0,7,13.72V11.87H9.57a.23.23,0,1,0,0-.46H7v-.23a.23.23,0,1,0-.46,0v2.54a.23.23,0,0,0,.23.23Zm0,0"/><circle class="cls-7" cx="11.42" cy="89.28" r="4"/><polyline class="cls-8" points="11.42 89.28 11.42 61.28 16.42 61.28"/></g></g></svg>