<svg xmlns="http://www.w3.org/2000/svg" xmlns:xlink="http://www.w3.org/1999/xlink" viewBox="0 0 64.23 64.23"><defs><style>.cls-1,.cls-2{fill:none;}.cls-2{stroke:#0effff;stroke-miterlimit:10;stroke-width:1.31px;}.cls-3{clip-path:url(#clip-path);}.cls-4{fill:#0effff;}</style><clipPath id="clip-path"><rect class="cls-1" x="22.75" y="13.32" width="27.04" height="33.46"/></clipPath></defs><title>Asset 100</title><g id="Layer_2" data-name="Layer 2"><g id="Layer_1-2" data-name="Layer 1"><circle class="cls-2" cx="32.11" cy="32.11" r="31.46"/><g class="cls-3"><path class="cls-4" d="M49.66,27.65a.81.81,0,0,0-.54-.73L33.28,22.08c-.3-.09-.43.07-.3.34l2.95,6.4a1.74,1.74,0,0,0,.75.74l4,1.83c.28.13.29.35,0,.49L23.49,41c-.27.14-.31.09-.08-.11L30,34.94a1.43,1.43,0,0,0,.42-.93V16.12a.81.81,0,0,0-.54-.72l-6.63-2a.39.39,0,0,0-.54.4V40.9a1.21,1.21,0,0,0,.46.88L30,46.51a1,1,0,0,0,.94,0l18.29-10.9a1.1,1.1,0,0,0,.48-.85Zm0,0"/></g></g></g></svg>