  <svg xmlns="http://www.w3.org/2000/svg" viewBox="0 0 597.5 540.99"><defs><style>.cls-1{opacity:0.52;}.cls-10,.cls-11,.cls-12,.cls-14,.cls-15,.cls-16,.cls-17,.cls-18,.cls-19,.cls-2,.cls-4,.cls-6,.cls-8{fill:none;stroke:#0effff;stroke-miterlimit:10;}.cls-2{stroke-width:1px;}.cls-3{opacity:0.62;}.cls-4{stroke-width:0.85px;}.cls-5{opacity:0.71;}.cls-6{stroke-width:0.69px;}.cls-7{opacity:0.81;}.cls-8{stroke-width:0.53px;}.cls-9{opacity:0.9;}.cls-10{stroke-width:0.37px;}.cls-11{stroke-width:0.21px;}.cls-12{stroke-width:1.06px;}.cls-13{fill:#0effff;}.cls-14{stroke-width:1.33px;}.cls-15{stroke-width:0.94px;}.cls-16{stroke-width:1.44px;}.cls-17{stroke-width:1.18px;}.cls-18{stroke-width:1.12px;}.cls-19{stroke-width:1.88px;stroke-dasharray:6;}</style></defs><title>Asset 30</title><g id="Layer_2" data-name="Layer 2"><g id="Layer_1-2" data-name="Layer 1">
                               
                                    
                                 <circle class="cls-12" cx="435.99" cy="127.38" r="25.37"/><path class="cls-13" d="M432.05,128.65a.44.44,0,0,0,.43.44h1.74a.43.43,0,0,0,.43-.44V126a.43.43,0,0,0-.43-.43h-1.74a.43.43,0,0,0-.43.43Zm.87-2.17h.87v1.74h-.87Zm0,0"/><path class="cls-13" d="M432.49,123.86h1.74a.43.43,0,0,0,.43-.43v-2.61a.43.43,0,0,0-.43-.44h-1.74a.44.44,0,0,0-.43.44v2.61a.43.43,0,0,0,.43.43Zm.44-2.61h.87V123h-.87Zm0,0"/><path class="cls-13" d="M429.23,120.76l6.3-3.78,6.3,3.78a.43.43,0,1,0,.45-.75L436,116.22v-2.8h2.17v.87h-1.3a.43.43,0,1,0,0,.87h1.74a.44.44,0,0,0,.44-.44V113a.44.44,0,0,0-.44-.44h-3a.44.44,0,0,0-.44.44v3.23L428.78,120a.43.43,0,1,0,.45.75Zm0,0"/><path class="cls-13" d="M427.27,129.08a.44.44,0,0,0,.44-.44V126a.44.44,0,0,0-.44-.44h-1.74a.44.44,0,0,0-.43.44v.87a.43.43,0,0,0,.87,0v-.44h.87v2.17a.44.44,0,0,0,.44.44Zm0,0"/><path class="cls-13" d="M430.31,134.73V122.12a.43.43,0,1,0-.87,0v12.61a.43.43,0,1,0,.87,0Zm0,0"/><path class="cls-13" d="M428.14,136.91h14.79a.43.43,0,1,0,0-.87H439v-4.35h.43a.43.43,0,1,0,0-.87h-7.83a.43.43,0,0,0,0,.87h.44V136h-3.91a.43.43,0,0,0,0,.87ZM436,134.3a.43.43,0,1,0,0-.87v-1.74h2.17V136H436Zm-3-2.61h2.17v1.74a.43.43,0,0,0,0,.87V136h-2.17Zm0,0"/><path class="cls-13" d="M445.53,131.26h-1.74a.44.44,0,0,0-.44.43v2.61a.44.44,0,0,0,.44.44h1.74a.44.44,0,0,0,.44-.44v-2.61a.44.44,0,0,0-.44-.43Zm-.43,2.61h-.87v-1.74h.87Zm0,0"/><path class="cls-13" d="M445.53,126h-1.74a.44.44,0,0,0-.44.44v2.61a.44.44,0,0,0,.44.43h1.74a.44.44,0,0,0,.44-.43v-2.61a.44.44,0,0,0-.44-.44Zm-.43,2.61h-.87v-1.74h.87Zm0,0"/><path class="cls-13" d="M444.66,137.78H426.4a.44.44,0,0,0,0,.87h18.27a.44.44,0,0,0,0-.87Zm0,0"/><path class="cls-13" d="M448.14,122.12a.44.44,0,0,0-.44.43V123h-4.78a.43.43,0,1,0,0,.87h4.78v14.35a.44.44,0,0,0,.87,0V122.56a.44.44,0,0,0-.44-.43Zm0,0"/><path class="cls-13" d="M436.4,128.65a.44.44,0,0,0,.44.44h1.74a.44.44,0,0,0,.44-.44V126a.44.44,0,0,0-.44-.43h-1.74a.44.44,0,0,0-.44.43Zm.87-2.17h.87v1.74h-.87Zm0,0"/><path class="cls-13" d="M426.83,133.87c0-.06,0-5.65-2.17-5.65s-2.17,5.6-2.17,5.65a2.18,2.18,0,0,0,1.74,2.13v2.22a.44.44,0,1,0,.87,0V136a2.18,2.18,0,0,0,1.74-2.13Zm-2.17,1.3a1.31,1.31,0,0,1-1.3-1.3c0-2.17.58-4.78,1.3-4.78s1.3,2.62,1.3,4.78a1.31,1.31,0,0,1-1.3,1.3Zm0,0"/><path class="cls-13" d="M441.62,134.73v-13a.43.43,0,0,0-.87,0v13a.43.43,0,1,0,.87,0Zm0,0"/><path class="cls-13" d="M436.84,123.86h1.74a.44.44,0,0,0,.44-.43v-2.61a.44.44,0,0,0-.44-.44h-1.74a.44.44,0,0,0-.44.44v2.61a.44.44,0,0,0,.44.43Zm.43-2.61h.87V123h-.87Zm0,0"/><path class="cls-13" d="M422.92,127.78a.44.44,0,0,0,.43-.44v-3.48h4.78a.43.43,0,1,0,0-.87h-4.78v-.43a.43.43,0,1,0-.87,0v4.78a.44.44,0,0,0,.44.44Zm0,0"/><circle class="cls-14" cx="392.66" cy="508.31" r="32.02"/><path class="cls-13" d="M408.84,500.72v13.38a.58.58,0,0,1-1.12.22l-4.92-11.81a2.91,2.91,0,0,0-5.59,1.12v10.47a.58.58,0,0,1-1.12.22l-4.92-11.81a2.91,2.91,0,0,0-5.59,1.12v9.89a1.16,1.16,0,0,1-1.16,1.16h-4.81a5.82,5.82,0,0,1,0-11.63h3.64v-2.33h-3.64a8.14,8.14,0,0,0,0,16.28h4.81a3.49,3.49,0,0,0,3.49-3.49v-9.89a.58.58,0,0,1,1.12-.22l4.92,11.81a2.91,2.91,0,0,0,5.59-1.12V503.62a.58.58,0,0,1,1.12-.22l4.92,11.81a2.91,2.91,0,0,0,5.59-1.12V500.72Z"/><circle class="cls-15" cx="126.38" cy="65.82" r="22.62"/><path class="cls-13" d="M123.38,60.45a5,5,0,0,1,4,2l2-2a7.82,7.82,0,1,0,1.52,7.14,7.58,7.58,0,0,0,.3-2.13v-.71H124.1v2.84h3.77a5,5,0,0,1-4.48,2.85,5,5,0,1,1,0-10Zm0,0"/><path class="cls-13" d="M137.61,61.87h-2.84V64h-2.13v2.84h2.13V69h2.84V66.85h2.18V64h-2.18Zm0,0"/><circle class="cls-15" cx="200.97" cy="447.49" r="22.62"/><path class="cls-13" d="M202.29,436.61a11.23,11.23,0,1,0,11.23,11.23,11.24,11.24,0,0,0-11.23-11.23Zm2.79,11.62h-1.83v6.51h-2.71v-6.51h-1.29v-2.3h1.29v-1.49a2.54,2.54,0,0,1,2.73-2.73h2V444h-1.46a.55.55,0,0,0-.57.63v1.35h2.06Zm0,0"/><circle class="cls-16" cx="289.32" cy="35.3" r="34.58"/><path class="cls-13" d="M306.8,27.1V41.55a.63.63,0,0,1-1.21.24L300.28,29a3.14,3.14,0,0,0-6,1.21V41.55a.63.63,0,0,1-1.21.24L287.71,29a3.14,3.14,0,0,0-6,1.21V40.92a1.26,1.26,0,0,1-1.26,1.26h-5.19a6.28,6.28,0,1,1,0-12.56h3.94V27.1h-3.94a8.79,8.79,0,1,0,0,17.59h5.19a3.77,3.77,0,0,0,3.77-3.77V30.24A.63.63,0,0,1,285.4,30l5.31,12.76a3.14,3.14,0,0,0,6-1.21V30.24A.63.63,0,0,1,298,30l5.31,12.76a3.14,3.14,0,0,0,6-1.21V27.1Z"/><circle class="cls-14" cx="564.81" cy="221.68" r="32.02"/><path class="cls-13" d="M581,214.09v13.38a.58.58,0,0,1-1.12.22L575,215.88a2.91,2.91,0,0,0-5.59,1.12v10.47a.58.58,0,0,1-1.12.22l-4.92-11.81a2.91,2.91,0,0,0-5.59,1.12v9.89a1.16,1.16,0,0,1-1.16,1.16h-4.81a5.82,5.82,0,0,1,0-11.63h3.64v-2.33h-3.64a8.14,8.14,0,0,0,0,16.28h4.81a3.49,3.49,0,0,0,3.49-3.49V217a.58.58,0,0,1,1.12-.22l4.92,11.81a2.91,2.91,0,0,0,5.59-1.12V217a.58.58,0,0,1,1.12-.22l4.92,11.81a2.91,2.91,0,0,0,5.59-1.12V214.09Z"/><circle class="cls-17" cx="29.02" cy="340.15" r="28.43"/><path class="cls-13" d="M43.15,331.42a12,12,0,0,1-3.32.91,5.72,5.72,0,0,0,2.53-3.18,11.49,11.49,0,0,1-3.65,1.39,5.75,5.75,0,0,0-10,3.93,5.92,5.92,0,0,0,.13,1.31,16.28,16.28,0,0,1-11.86-6,5.75,5.75,0,0,0,1.77,7.69,5.68,5.68,0,0,1-2.6-.71v.06a5.78,5.78,0,0,0,4.61,5.65,5.74,5.74,0,0,1-1.51.19,5.09,5.09,0,0,1-1.09-.1,5.81,5.81,0,0,0,5.38,4A11.56,11.56,0,0,1,16.46,349a10.75,10.75,0,0,1-1.38-.08,16.2,16.2,0,0,0,8.83,2.58c10.59,0,16.37-8.77,16.37-16.37,0-.25,0-.5,0-.74a11.48,11.48,0,0,0,2.88-3Zm0,0"/><circle class="cls-18" cx="566.77" cy="376.59" r="26.89"/><path class="cls-13" d="M579.14,370.15c-.66-1.17-1.37-1.39-2.83-1.47s-5.11-.14-8.27-.14-6.83,0-8.28.14-2.17.3-2.83,1.47-1,3.18-1,6.73h0c0,3.53.35,5.56,1,6.72s1.38,1.38,2.83,1.48,5.11.14,8.28.14,6.82-.05,8.28-.13,2.17-.31,2.83-1.48,1-3.19,1-6.72h0c0-3.55-.35-5.56-1-6.73ZM565,381.44v-9.1l7.59,4.55Zm0,0"/><polyline class="cls-19" points="139.42 88.72 297.16 302.72 297.16 68.98"/><polyline class="cls-19" points="57.42 339.72 297.42 302.72 422.42 152.72"/><polyline class="cls-19" points="380.42 476.72 297.42 302.72 213.52 428.68"/><polyline class="cls-19" points="532.42 230.72 297.42 302.72 543.62 362.93"/></g></g></svg>  