<svg width="435" height="349" viewBox="0 0 435 349" fill="none" xmlns="http://www.w3.org/2000/svg">
<circle cx="80" cy="185" r="18.5" stroke="#0EFFFF" stroke-width="5"/>
<circle cx="396.5" cy="105.5" r="10.5" stroke="#0EFFFF" stroke-width="4"/>
<circle cx="426" cy="250" r="6.5" stroke="#0EFFFF" stroke-width="5"/>
<g opacity="0.2443">
<path opacity="0.2443" d="M99.2998 49.3L81.5998 98L66.2998 88.3L95.8998 50.3L99.2998 49.3ZM81.2998 97.1L98.1998 50.3L96.1998 50.9L67.1998 88.1L81.2998 97.1Z" stroke="#0EFFFF" stroke-width="0.915" stroke-miterlimit="10"/>
</g>
<g opacity="0.2443">
<path opacity="0.2443" d="M52 203.3L1 200.8L6.1 183.9L50.2 200.5L52 203.3ZM1.8 200.3L50.8 202.7L49.7 201.1L6.4 184.8L1.8 200.3Z" stroke="#0EFFFF" stroke-width="0.8933" stroke-miterlimit="10"/>
</g>
<g opacity="0.2443">
<path opacity="0.2443" d="M72.7998 347L77.1998 266.9L104.3 274.4L77.2998 344L72.7998 347ZM78.0998 268.2L73.8998 345.2L76.4998 343.4L103 275.1L78.0998 268.2Z" stroke="#0EFFFF" stroke-width="1.4173" stroke-miterlimit="10"/>
</g>
<g opacity="0.054651">
<path opacity="0.054651" d="M100.7 86.5L147.1 169L81 97.5L100.7 86.5ZM144 164.7L100.5 87.3L82 97.6L144 164.7Z" stroke="#0EFFFF" stroke-width="0.915" stroke-miterlimit="10"/>
</g>
<g opacity="0.341">
<path opacity="0.341" d="M234.3 29.2L269.8 100.9L227.5 78.9L234.3 29.2ZM268.4 99.5L234.6 31.3L228.2 78.6L268.4 99.5Z" stroke="#0EFFFF" stroke-width="0.915" stroke-miterlimit="10"/>
</g>
<path d="M319.9 70.1L291.6 130.3L268.6 100.2L319.9 70.1ZM291.5 129.1L318.5 71.7L269.5 100.3L291.5 129.1Z" stroke="#0EFFFF" stroke-width="0.915" stroke-miterlimit="10"/>
<g opacity="0.3403">
<path opacity="0.3403" d="M321.4 67.6L353.6 92.7L349.8 121.1L318.8 70.8L321.4 67.6ZM353 93L321.5 68.5L319.6 70.9L349.5 119.3L353 93Z" stroke="#0EFFFF" stroke-width="0.915" stroke-miterlimit="10"/>
</g>
<g opacity="0.1984">
<path opacity="0.1984" d="M236.1 1L252.9 14.1L234.1 30.9L236.1 1ZM251.9 14.1L236.6 2.2L234.8 29.5L251.9 14.1Z" stroke="#0EFFFF" stroke-width="0.915" stroke-miterlimit="10"/>
</g>
<g opacity="0.2669">
<path opacity="0.2669" d="M268 25.9L318.6 65.4L319.7 71.4L233.4 30L268 25.9ZM318 65.7L267.8 26.6L235.5 30.4L318.8 70.4L318 65.7Z" stroke="#0EFFFF" stroke-width="0.915" stroke-miterlimit="10"/>
</g>
<g opacity="0.3556">
<path opacity="0.3556" d="M209 105.2L145.5 167.3L100 86.5L209 105.2ZM145.6 166.3L207.7 105.6L101.2 87.3L145.6 166.3Z" stroke="#0EFFFF" stroke-width="0.915" stroke-miterlimit="10"/>
</g>
<g opacity="0.058722">
<path opacity="0.058722" d="M151.8 4.30005L228.2 78.7001L208.2 106L151.8 4.30005ZM227.5 78.7001L154.4 7.70005L208.4 104.9L227.5 78.7001Z" stroke="#0EFFFF" stroke-width="0.915" stroke-miterlimit="10"/>
</g>
<g opacity="0.5176">
<path opacity="0.5176" d="M332.3 161.9V162.2L334.9 206L272.6 164.1L332.3 161.9ZM334.3 204.8L331.8 162.5L274.6 164.6L334.3 204.8Z" stroke="#0EFFFF" stroke-width="0.915" stroke-miterlimit="10"/>
</g>
<g opacity="0.7235">
<path opacity="0.7235" d="M331.6 161.4L348.1 176.7L338.8 200.4L331.6 161.4ZM347.3 176.9L332.5 163.1L338.9 198.2L347.3 176.9Z" stroke="#0EFFFF" stroke-width="0.915" stroke-miterlimit="10"/>
</g>
<g opacity="0.7235">
<path opacity="0.7235" d="M342.3 274.5L375.7 293.3L355 324.4L342.3 274.5ZM374.2 293.6L344.2 276.7L355.7 321.6L374.2 293.6Z" stroke="#0EFFFF" stroke-width="1.497" stroke-miterlimit="10"/>
</g>
<g opacity="0.3334">
<path opacity="0.3334" d="M397.7 137L347.4 177.4L349.5 119.8L397.7 137ZM348 176.1L396.4 137.2L350 120.6L348 176.1Z" stroke="#0EFFFF" stroke-width="0.915" stroke-miterlimit="10"/>
</g>
<g opacity="0.8014">
<path opacity="0.8014" d="M228 78L231.2 91.9L207.1 106.5L228 78ZM230.6 91.6L227.8 79.5L209.6 104.4L230.6 91.6Z" stroke="#0EFFFF" stroke-width="0.915" stroke-miterlimit="10"/>
</g>
<g opacity="0.38">
<path opacity="0.38" d="M271.3 101L230.6 92L227.4 78.1L271.3 101ZM231.2 91.5L266.9 99.4L228.3 79.3L231.2 91.5Z" stroke="#0EFFFF" stroke-width="0.915" stroke-miterlimit="10"/>
</g>
<path d="M258.183 187C257.669 187 256.188 187 255.933 187H170.995C169.441 187 168.182 188.256 168.182 189.805C168.182 191.354 169.441 192.61 170.995 192.61H248.127C247.014 194.406 246.371 196.519 246.371 198.781V235.522C246.371 237.071 247.63 238.327 249.183 238.327C250.737 238.327 251.996 237.071 251.996 235.522V226.831H267.183C268.736 226.831 269.995 225.574 269.995 224.026V198.781C269.995 192.285 264.696 187 258.183 187ZM264.37 221.22H251.996V198.781C251.996 195.378 254.771 192.61 258.183 192.61C261.594 192.61 264.37 195.378 264.37 198.781V221.22H264.37Z" fill="#0EFFFF"/>
<path d="M266.926 301.31L248.555 282.988C250.675 278.675 251.868 273.831 251.868 268.713C251.868 250.771 237.233 236.175 219.244 236.175C201.255 236.175 186.62 250.771 186.62 268.713C186.62 272.815 187.387 276.741 188.782 280.359L185.49 283.642L171.95 270.137C171.423 269.611 170.707 269.316 169.961 269.316C169.215 269.316 168.5 269.611 167.973 270.137L164.807 273.294V247.681C164.807 246.132 163.548 244.876 161.995 244.876C160.441 244.876 159.182 246.132 159.182 247.681V278.905L133.753 304.267C132.655 305.362 132.655 307.138 133.753 308.234C134.302 308.781 135.022 309.055 135.742 309.055C136.461 309.055 137.181 308.781 137.73 308.234L159.182 286.839V307.053H146.809C145.256 307.053 143.997 308.309 143.997 309.858V318.834C143.997 325.33 149.296 330.615 155.809 330.615H240.183C246.697 330.615 251.996 325.33 251.996 318.834V316.425C253.964 318.33 256.557 319.378 259.327 319.378C259.345 319.378 259.362 319.378 259.38 319.378C262.213 319.364 264.874 318.258 266.873 316.264C271.021 312.126 271.045 305.418 266.926 301.31ZM219.244 241.785C234.131 241.785 246.243 253.865 246.243 268.713C246.243 283.561 234.131 295.64 219.244 295.64C209.021 295.64 200.107 289.944 195.525 281.568L211.778 265.357V271.721C211.778 273.27 213.037 274.526 214.591 274.526C216.144 274.526 217.403 273.27 217.403 271.721V258.259C217.403 256.71 216.144 255.454 214.591 255.454H201.093C199.539 255.454 198.28 256.71 198.28 258.259C198.28 259.808 199.539 261.064 201.093 261.064H208.128L193.229 275.924C192.589 273.628 192.245 271.21 192.245 268.713C192.244 253.864 204.356 241.785 219.244 241.785ZM155.809 325.004C152.397 325.004 149.622 322.236 149.622 318.833V312.662H228.371V316.028C228.371 316.12 228.376 316.211 228.384 316.3C228.376 316.39 228.371 316.48 228.371 316.572V318.833C228.371 321.095 229.014 323.208 230.126 325.004H155.809V325.004ZM246.371 318.832C246.371 322.236 243.595 325.004 240.183 325.004C236.771 325.004 233.996 322.235 233.996 318.832V316.571C233.996 316.48 233.991 316.389 233.982 316.3C233.991 316.21 233.996 316.119 233.996 316.028V309.857C233.996 308.308 232.736 307.052 231.183 307.052H164.807V281.228L169.961 276.087L183.501 289.592C184.029 290.118 184.744 290.414 185.49 290.414C186.236 290.414 186.951 290.118 187.479 289.592L191.411 285.67C197.151 295.008 207.48 301.25 219.244 301.25C224.35 301.25 229.186 300.072 233.494 297.977L246.371 310.82V318.832ZM262.896 312.296C261.952 313.238 260.693 313.76 259.353 313.766C259.344 313.767 259.336 313.767 259.328 313.767C258.007 313.767 256.775 313.263 255.858 312.348L238.456 294.992C241.169 293.014 243.565 290.629 245.554 287.927L262.949 305.277C264.875 307.197 264.851 310.346 262.896 312.296Z" fill="#0EFFFF"/>
<path d="M237.05 265.908C235.497 265.908 234.238 267.164 234.238 268.713C234.238 276.959 227.512 283.667 219.244 283.667C217.69 283.667 216.431 284.923 216.431 286.472C216.431 288.021 217.69 289.277 219.244 289.277C230.613 289.277 239.863 280.052 239.863 268.713C239.863 267.164 238.604 265.908 237.05 265.908Z" fill="#0EFFFF"/>
<path d="M198.033 235.245H195.466V216.452C195.466 214.903 194.207 213.647 192.654 213.647H179.738C178.185 213.647 176.926 214.903 176.926 216.452V235.245H172.404V204.952C172.404 203.403 171.145 202.147 169.592 202.147H157.217C155.664 202.147 154.405 203.403 154.405 204.952V235.245H149.905V222.903C149.905 221.354 148.646 220.098 147.093 220.098H134.718C133.165 220.098 131.906 221.354 131.906 222.903V235.245H128.812C127.259 235.245 126 236.501 126 238.05C126 239.599 127.259 240.855 128.812 240.855H198.033C199.587 240.855 200.846 239.599 200.846 238.05C200.846 236.501 199.586 235.245 198.033 235.245ZM144.281 235.245H137.531V225.709H144.281V235.245ZM166.78 235.245H160.03V207.757H166.78V235.245ZM189.841 235.245H182.551V219.257H189.841V235.245Z" fill="#0EFFFF"/>
<path d="M220.908 202.147H199.123C197.569 202.147 196.31 203.403 196.31 204.952C196.31 206.501 197.569 207.757 199.123 207.757H220.908C222.461 207.757 223.72 206.501 223.72 204.952C223.72 203.403 222.461 202.147 220.908 202.147Z" fill="#0EFFFF"/>
<path d="M236.809 202.968C236.286 202.447 235.56 202.146 234.82 202.146C234.081 202.146 233.355 202.446 232.832 202.968C232.309 203.49 232.008 204.214 232.008 204.951C232.008 205.689 232.309 206.413 232.832 206.934C233.355 207.456 234.081 207.756 234.82 207.756C235.56 207.756 236.286 207.456 236.809 206.934C237.332 206.413 237.633 205.689 237.633 204.951C237.633 204.214 237.332 203.49 236.809 202.968Z" fill="#0EFFFF"/>
<path d="M210.015 214.489H205.404C203.85 214.489 202.591 215.745 202.591 217.294C202.591 218.843 203.85 220.099 205.404 220.099H210.015C211.569 220.099 212.828 218.843 212.828 217.294C212.828 215.745 211.569 214.489 210.015 214.489Z" fill="#0EFFFF"/>
<path d="M234.819 214.489H220.908C219.354 214.489 218.095 215.745 218.095 217.294C218.095 218.843 219.354 220.099 220.908 220.099H234.819C236.373 220.099 237.632 218.843 237.632 217.294C237.632 215.745 236.373 214.489 234.819 214.489Z" fill="#0EFFFF"/>
<path d="M130.803 311.176C130.28 310.654 129.555 310.353 128.815 310.353C128.072 310.353 127.35 310.654 126.827 311.176C126.301 311.697 126.002 312.421 126.002 313.158C126.002 313.896 126.301 314.62 126.827 315.142C127.35 315.663 128.072 315.963 128.815 315.963C129.555 315.963 130.277 315.664 130.803 315.142C131.326 314.62 131.627 313.896 131.627 313.158C131.627 312.42 131.326 311.697 130.803 311.176Z" fill="#0EFFFF"/>
</svg>
