<svg width="425" height="349" viewBox="0 0 425 349" fill="none" xmlns="http://www.w3.org/2000/svg">
<circle cx="70" cy="160" r="18.5" stroke="#0EFFFF" stroke-width="5"/>
<circle cx="386.5" cy="80.5" r="10.5" stroke="#0EFFFF" stroke-width="4"/>
<circle cx="416" cy="225" r="6.5" stroke="#0EFFFF" stroke-width="5"/>
<g opacity="0.2443">
<path opacity="0.2443" d="M99.2998 49.3L81.5998 98L66.2998 88.3L95.8998 50.3L99.2998 49.3ZM81.2998 97.1L98.1998 50.3L96.1998 50.9L67.1998 88.1L81.2998 97.1Z" stroke="#0EFFFF" stroke-width="0.915" stroke-miterlimit="10"/>
</g>
<g opacity="0.2443">
<path opacity="0.2443" d="M52 203.3L1 200.8L6.1 183.9L50.2 200.5L52 203.3ZM1.8 200.3L50.8 202.7L49.7 201.1L6.4 184.8L1.8 200.3Z" stroke="#0EFFFF" stroke-width="0.8933" stroke-miterlimit="10"/>
</g>
<g opacity="0.2443">
<path opacity="0.2443" d="M72.7998 347L77.1998 266.9L104.3 274.4L77.2998 344L72.7998 347ZM78.0998 268.2L73.8998 345.2L76.4998 343.4L103 275.1L78.0998 268.2Z" stroke="#0EFFFF" stroke-width="1.4173" stroke-miterlimit="10"/>
</g>
<g opacity="0.054651">
<path opacity="0.054651" d="M100.7 86.5L147.1 169L81 97.5L100.7 86.5ZM144 164.7L100.5 87.3L82 97.6L144 164.7Z" stroke="#0EFFFF" stroke-width="0.915" stroke-miterlimit="10"/>
</g>
<g opacity="0.341">
<path opacity="0.341" d="M234.3 29.2L269.8 100.9L227.5 78.9L234.3 29.2ZM268.4 99.5L234.6 31.3L228.2 78.6L268.4 99.5Z" stroke="#0EFFFF" stroke-width="0.915" stroke-miterlimit="10"/>
</g>
<path d="M319.9 70.1L291.6 130.3L268.6 100.2L319.9 70.1ZM291.5 129.1L318.5 71.7L269.5 100.3L291.5 129.1Z" stroke="#0EFFFF" stroke-width="0.915" stroke-miterlimit="10"/>
<g opacity="0.3403">
<path opacity="0.3403" d="M321.4 67.6L353.6 92.7L349.8 121.1L318.8 70.8L321.4 67.6ZM353 93L321.5 68.5L319.6 70.9L349.5 119.3L353 93Z" stroke="#0EFFFF" stroke-width="0.915" stroke-miterlimit="10"/>
</g>
<g opacity="0.1984">
<path opacity="0.1984" d="M236.1 1L252.9 14.1L234.1 30.9L236.1 1ZM251.9 14.1L236.6 2.2L234.8 29.5L251.9 14.1Z" stroke="#0EFFFF" stroke-width="0.915" stroke-miterlimit="10"/>
</g>
<g opacity="0.2669">
<path opacity="0.2669" d="M268 25.9L318.6 65.4L319.7 71.4L233.4 30L268 25.9ZM318 65.7L267.8 26.6L235.5 30.4L318.8 70.4L318 65.7Z" stroke="#0EFFFF" stroke-width="0.915" stroke-miterlimit="10"/>
</g>
<g opacity="0.3556">
<path opacity="0.3556" d="M209 105.2L145.5 167.3L100 86.5L209 105.2ZM145.6 166.3L207.7 105.6L101.2 87.3L145.6 166.3Z" stroke="#0EFFFF" stroke-width="0.915" stroke-miterlimit="10"/>
</g>
<g opacity="0.058722">
<path opacity="0.058722" d="M151.8 4.30005L228.2 78.7001L208.2 106L151.8 4.30005ZM227.5 78.7001L154.4 7.70005L208.4 104.9L227.5 78.7001Z" stroke="#0EFFFF" stroke-width="0.915" stroke-miterlimit="10"/>
</g>
<g opacity="0.5176">
<path opacity="0.5176" d="M332.3 161.9V162.2L334.9 206L272.6 164.1L332.3 161.9ZM334.3 204.8L331.8 162.5L274.6 164.6L334.3 204.8Z" stroke="#0EFFFF" stroke-width="0.915" stroke-miterlimit="10"/>
</g>
<g opacity="0.7235">
<path opacity="0.7235" d="M331.6 161.4L348.1 176.7L338.8 200.4L331.6 161.4ZM347.3 176.9L332.5 163.1L338.9 198.2L347.3 176.9Z" stroke="#0EFFFF" stroke-width="0.915" stroke-miterlimit="10"/>
</g>
<g opacity="0.7235">
<path opacity="0.7235" d="M342.3 274.5L375.7 293.3L355 324.4L342.3 274.5ZM374.2 293.6L344.2 276.7L355.7 321.6L374.2 293.6Z" stroke="#0EFFFF" stroke-width="1.497" stroke-miterlimit="10"/>
</g>
<g opacity="0.3334">
<path opacity="0.3334" d="M397.7 137L347.4 177.4L349.5 119.8L397.7 137ZM348 176.1L396.4 137.2L350 120.6L348 176.1Z" stroke="#0EFFFF" stroke-width="0.915" stroke-miterlimit="10"/>
</g>
<g opacity="0.8014">
<path opacity="0.8014" d="M228 78L231.2 91.9L207.1 106.5L228 78ZM230.6 91.6L227.8 79.5L209.6 104.4L230.6 91.6Z" stroke="#0EFFFF" stroke-width="0.915" stroke-miterlimit="10"/>
</g>
<g opacity="0.38">
<path opacity="0.38" d="M271.3 101L230.6 92L227.4 78.1L271.3 101ZM231.2 91.5L266.9 99.4L228.3 79.3L231.2 91.5Z" stroke="#0EFFFF" stroke-width="0.915" stroke-miterlimit="10"/>
</g>
<path d="M285.95 288.693L285.947 288.693V288.686L276.654 287.36C275.347 287.175 274.438 285.966 274.623 284.659C274.712 284.03 275.048 283.461 275.557 283.08L278.604 280.8H284.979C286.299 280.8 287.369 279.731 287.369 278.411V192.389C287.369 191.07 286.299 190 284.979 190H146.389C145.07 190 144 191.07 144 192.389V278.411C144 279.731 145.07 280.8 146.389 280.8H152.569L149.479 283.89C148.665 284.705 148.548 285.985 149.202 286.934L153.742 293.539L145.888 295.188C144.785 295.424 143.999 296.399 144 297.527V307.085C143.999 308.215 144.791 309.191 145.897 309.424L153.751 311.075L149.211 317.677C148.558 318.626 148.674 319.907 149.489 320.722L156.657 327.89C157.472 328.704 158.752 328.821 159.701 328.167L166.303 323.627L167.955 331.481C168.19 332.58 169.16 333.366 170.284 333.369H179.842C180.972 333.37 181.948 332.578 182.181 331.472L183.833 323.615L190.435 328.167C191.384 328.821 192.664 328.704 193.479 327.89L200.647 320.722C201.462 319.907 201.578 318.626 200.924 317.677L196.384 311.073L204.239 309.424C205.341 309.187 206.128 308.212 206.126 307.085V297.527C206.127 296.397 205.335 295.421 204.229 295.188L196.375 293.536L200.915 286.934C201.568 285.985 201.452 284.705 200.638 283.89L197.558 280.8H207.419L205.508 294.098C205.318 295.404 206.223 296.616 207.529 296.806C207.539 296.807 207.55 296.809 207.56 296.81L216.852 298.136C218.159 298.321 219.069 299.53 218.884 300.836C218.795 301.466 218.458 302.035 217.949 302.416L210.427 308.041C209.372 308.832 209.158 310.33 209.95 311.386L218.552 322.855C219.343 323.911 220.841 324.125 221.897 323.333L229.407 317.699C230.463 316.907 231.961 317.121 232.752 318.176C233.133 318.684 233.297 319.322 233.206 319.95L231.878 329.243C231.69 330.549 232.598 331.76 233.904 331.947L233.906 331.947L248.098 333.974C248.21 333.991 248.323 334 248.437 334C249.626 334 250.635 333.125 250.802 331.947L252.131 322.655C252.317 321.348 253.527 320.44 254.833 320.626C255.461 320.715 256.028 321.051 256.408 321.558L262.04 329.068C262.832 330.124 264.33 330.338 265.385 329.546L276.855 320.944C277.911 320.152 278.125 318.654 277.333 317.599L271.698 310.088C270.906 309.033 271.12 307.535 272.176 306.743C272.683 306.362 273.321 306.199 273.949 306.289L283.242 307.615C284.548 307.803 285.759 306.896 285.947 305.59L287.976 291.398C288.163 290.092 287.256 288.881 285.95 288.693ZM201.347 299.467V305.145L195.39 306.397C192.807 306.939 191.154 309.473 191.696 312.056C191.827 312.677 192.079 313.265 192.439 313.787L195.852 318.75L191.508 323.094L186.545 319.673C184.371 318.175 181.396 318.723 179.898 320.896C179.539 321.417 179.287 322.004 179.156 322.624L177.902 328.59H172.224L170.97 322.636C170.424 320.053 167.888 318.403 165.305 318.949C164.692 319.079 164.111 319.328 163.594 319.682L158.619 323.094L154.275 318.75L157.696 313.787C159.195 311.615 158.649 308.639 156.477 307.14C155.955 306.78 155.366 306.527 154.745 306.397L148.779 305.145V299.467L154.736 298.215C157.318 297.668 158.968 295.132 158.421 292.55C158.291 291.936 158.042 291.354 157.687 290.836L154.275 285.861L158.619 281.517L163.594 284.93C165.767 286.427 168.743 285.879 170.241 283.706C170.6 283.185 170.852 282.598 170.982 281.978L172.224 276.022H177.902L179.156 281.976C179.699 284.559 182.232 286.214 184.815 285.671C185.435 285.541 186.023 285.289 186.545 284.93L191.508 281.517L195.852 285.861L192.439 290.836C190.941 293.009 191.487 295.985 193.659 297.484C194.181 297.844 194.77 298.097 195.39 298.227L201.347 299.467ZM185.259 280.01L183.825 280.994L182.174 273.14C181.942 272.036 180.97 271.246 179.842 271.243H175.063V254.516H184.621V278.411C184.625 279.005 184.853 279.576 185.259 280.01ZM196.568 240.179C195.249 240.179 194.179 241.249 194.179 242.569V276.022H189.4V252.127C189.4 250.807 188.33 249.737 187.011 249.737H172.674C171.354 249.737 170.284 250.807 170.284 252.127V271.243C169.154 271.242 168.178 272.034 167.945 273.14L166.294 280.996L159.692 276.444C159.292 276.176 158.819 276.038 158.337 276.048V276.022H148.779V194.779H282.59V272.836L274.943 262.64C274.151 261.585 272.654 261.371 271.598 262.162L264.088 267.797C263.032 268.589 261.534 268.375 260.743 267.32C260.362 266.812 260.198 266.174 260.289 265.546L261.617 256.253C261.708 255.591 261.515 254.922 261.084 254.411V211.505C261.084 210.186 260.014 209.116 258.695 209.116H244.358C243.038 209.116 241.969 210.186 241.969 211.505V258.612L241.364 262.841C241.189 264.138 239.995 265.048 238.698 264.873C238.108 264.793 237.57 264.494 237.19 264.036V223.453C237.19 222.133 236.12 221.063 234.8 221.063H220.463C219.144 221.063 218.074 222.133 218.074 223.453V263.477L216.64 264.552C215.584 265.344 215.37 266.841 216.162 267.897L221.797 275.407C222.589 276.463 222.375 277.961 221.319 278.753C220.812 279.134 220.174 279.297 219.546 279.207L213.295 278.315V242.569C213.295 241.249 212.225 240.179 210.905 240.179H196.568ZM256.305 213.895V253.082L246.747 251.716V213.895H256.305ZM232.411 225.842V257.704L231.455 256.428C230.663 255.372 229.165 255.158 228.11 255.95L222.853 259.892V225.842H232.411ZM208.516 276.022H198.958V244.958H208.516V276.022ZM281.553 302.545L274.623 301.556C270.704 300.996 267.073 303.719 266.513 307.639C266.244 309.521 266.734 311.432 267.875 312.953L272.076 318.554L264.43 324.289L260.231 318.691C257.858 315.522 253.365 314.878 250.196 317.251C248.673 318.392 247.666 320.092 247.397 321.976L246.408 328.906L236.951 327.553L237.94 320.624C238.498 316.704 235.774 313.074 231.854 312.516C229.974 312.248 228.064 312.737 226.544 313.876L220.941 318.076L215.206 310.43L220.803 306.232C223.97 303.857 224.613 299.363 222.237 296.196C221.097 294.675 219.399 293.67 217.517 293.4L210.588 292.409L211.94 282.949L218.869 283.938C222.789 284.498 226.42 281.774 226.979 277.855C227.248 275.973 226.758 274.061 225.617 272.54L221.419 266.941L229.065 261.207L233.264 266.805C235.637 269.974 240.13 270.618 243.299 268.245C244.822 267.104 245.829 265.404 246.098 263.52L247.087 256.59L256.547 257.943L255.557 264.872C254.999 268.792 257.724 272.422 261.643 272.98C263.523 273.248 265.433 272.759 266.953 271.62L272.554 267.419L278.289 275.066L272.692 279.264C269.525 281.639 268.882 286.132 271.258 289.3C272.398 290.82 274.096 291.826 275.978 292.096L282.907 293.087L281.553 302.545Z" fill="#0EFFFF"/>
<path d="M175.063 287.969C167.145 287.969 160.726 294.388 160.726 302.306C160.726 310.224 167.145 316.643 175.063 316.643C182.981 316.643 189.4 310.224 189.4 302.306C189.392 294.391 182.978 287.977 175.063 287.969ZM175.063 311.864C169.784 311.864 165.505 307.585 165.505 302.306C165.505 297.027 169.784 292.748 175.063 292.748C180.342 292.748 184.621 297.027 184.621 302.306C184.621 307.585 180.342 311.864 175.063 311.864Z" fill="#0EFFFF"/>
<path d="M246.748 273.632C236.19 273.632 227.632 282.191 227.632 292.748C227.632 303.305 236.19 311.864 246.748 311.864C257.305 311.864 265.863 303.305 265.863 292.748C265.852 282.195 257.3 273.644 246.748 273.632ZM246.748 307.085C238.83 307.085 232.411 300.666 232.411 292.748C232.411 284.83 238.83 278.411 246.748 278.411C254.666 278.411 261.085 284.83 261.085 292.748C261.077 300.663 254.662 307.077 246.748 307.085Z" fill="#0EFFFF"/>
<path d="M240.057 199.606L228.11 197.216L227.154 201.9L232.946 203.061L169.075 240.507L171.493 244.631L236.191 206.705L234.848 213.417L239.531 214.354L241.921 202.406C242.173 201.119 241.341 199.87 240.057 199.606Z" fill="#0EFFFF"/>
<path d="M158.337 254.516H153.558V271.243H158.337V254.516Z" fill="#0EFFFF"/>
<path d="M158.337 244.958H153.558V249.737H158.337V244.958Z" fill="#0EFFFF"/>
<path d="M277.811 221.063H273.032V256.906H277.811V221.063Z" fill="#0EFFFF"/>
<path d="M277.811 211.505H273.032V216.284H277.811V211.505Z" fill="#0EFFFF"/>
<path d="M203.737 326.201H198.958V330.98H203.737V326.201Z" fill="#0EFFFF"/>
<path d="M213.295 326.201H208.516V330.98H213.295V326.201Z" fill="#0EFFFF"/>
<path d="M222.853 326.201H218.074V330.98H222.853V326.201Z" fill="#0EFFFF"/>
</svg>
