<svg xmlns="http://www.w3.org/2000/svg" viewBox="0 0 54.02 54.02"><defs><style>.cls-1{fill:none;stroke:#0effff;stroke-miterlimit:10;stroke-width:1.1px;}.cls-2{fill:#0effff;}</style></defs><title>Asset 90</title><g id="Layer_2" data-name="Layer 2"><g id="Layer_1-2" data-name="Layer 1"><circle class="cls-1" cx="27.01" cy="27.01" r="26.46"/><path class="cls-2" d="M28.36,23.33c1.19,0,1.95.51,1.95,1.33a1.19,1.19,0,0,1-.91,1.17,1.31,1.31,0,0,1,1.09,1.34c0,.9-.79,1.47-2,1.47h-2.6v-5.3h2.51Zm-1.17,2.12h1.09c.39,0,.64-.21.64-.55s-.25-.54-.64-.54H27.19Zm0,2.14h1.09c.5,0,.81-.22.81-.6s-.31-.58-.81-.58H27.19Z"/><path class="cls-2" d="M45.85,24.17l-.78.92a1.81,1.81,0,0,0-1.33-.69,1.55,1.55,0,0,0,0,3.1,2,2,0,0,0,1.33-.62l.79.83a3.2,3.2,0,0,1-2.19,1,2.71,2.71,0,1,1,0-5.41A3.08,3.08,0,0,1,45.85,24.17Z"/><path class="cls-2" d="M13.16,23.33c1.19,0,1.95.51,1.95,1.33a1.19,1.19,0,0,1-.91,1.17,1.31,1.31,0,0,1,1.09,1.34c0,.9-.79,1.47-2,1.47h-2.6v-5.3h2.51ZM12,25.45h1.09c.39,0,.64-.21.64-.55s-.25-.54-.64-.54H12Zm0,2.14h1.09c.5,0,.81-.22.81-.6s-.31-.58-.81-.58H12Z"/></g></g></svg>