<svg xmlns="http://www.w3.org/2000/svg" viewBox="0 0 60.6 60.6"><defs><style>.cls-1{fill:none;stroke:#0effff;stroke-miterlimit:10;stroke-width:1.24px;}.cls-2{fill:#0effff;}</style></defs><title>Asset 80</title><g id="Layer_2" data-name="Layer 2"><g id="Layer_1-2" data-name="Layer 1"><circle class="cls-1" cx="30.3" cy="30.3" r="29.68"/><path class="cls-2" d="M25.69,31.78a.51.51,0,0,0,.51.51h2a.51.51,0,0,0,.51-.51V28.73a.51.51,0,0,0-.51-.51h-2a.51.51,0,0,0-.51.51Zm1-2.54h1v2h-1Zm0,0"/><path class="cls-2" d="M26.2,26.18h2a.51.51,0,0,0,.51-.51V22.62a.51.51,0,0,0-.51-.51h-2a.51.51,0,0,0-.51.51v3.05a.51.51,0,0,0,.51.51Zm.51-3.05h1v2h-1Zm0,0"/><path class="cls-2" d="M22.39,22.55l7.37-4.42,7.37,4.42a.51.51,0,1,0,.52-.87l-7.39-4.43V14h2.54v1H31.29a.51.51,0,1,0,0,1h2a.51.51,0,0,0,.51-.51v-2a.51.51,0,0,0-.51-.51H29.76a.51.51,0,0,0-.51.51v3.78l-7.39,4.43a.51.51,0,1,0,.52.87Zm0,0"/><path class="cls-2" d="M20.09,32.29a.51.51,0,0,0,.51-.51V28.73a.51.51,0,0,0-.51-.51h-2a.51.51,0,0,0-.51.51v1a.51.51,0,0,0,1,0v-.51h1v2.54a.51.51,0,0,0,.51.51Zm0,0"/><path class="cls-2" d="M23.65,38.9V24.15a.51.51,0,1,0-1,0V38.9a.51.51,0,1,0,1,0Zm0,0"/><path class="cls-2" d="M21.11,41.45h17.3a.51.51,0,1,0,0-1H33.83V35.34h.51a.51.51,0,1,0,0-1H25.18a.51.51,0,0,0,0,1h.51v5.09H21.11a.51.51,0,0,0,0,1Zm9.16-3.05a.51.51,0,1,0,0-1v-2h2.54v5.09H30.27Zm-3.56-3.05h2.54v2a.51.51,0,0,0,0,1v2H26.71Zm0,0"/><path class="cls-2" d="M41.46,34.83h-2a.51.51,0,0,0-.51.51v3.05a.51.51,0,0,0,.51.51h2a.51.51,0,0,0,.51-.51V35.34a.51.51,0,0,0-.51-.51ZM41,37.89h-1v-2h1Zm0,0"/><path class="cls-2" d="M41.46,28.73h-2a.51.51,0,0,0-.51.51v3.05a.51.51,0,0,0,.51.51h2a.51.51,0,0,0,.51-.51V29.24a.51.51,0,0,0-.51-.51ZM41,31.78h-1v-2h1Zm0,0"/><path class="cls-2" d="M40.45,42.47H19.07a.51.51,0,0,0,0,1H40.45a.51.51,0,0,0,0-1Zm0,0"/><path class="cls-2" d="M44.52,24.15a.51.51,0,0,0-.51.51v.51h-5.6a.51.51,0,1,0,0,1H44V43a.51.51,0,0,0,1,0V24.66a.51.51,0,0,0-.51-.51Zm0,0"/><path class="cls-2" d="M30.78,31.78a.51.51,0,0,0,.51.51h2a.51.51,0,0,0,.51-.51V28.73a.51.51,0,0,0-.51-.51h-2a.51.51,0,0,0-.51.51Zm1-2.54h1v2h-1Zm0,0"/><path class="cls-2" d="M19.58,37.89c0-.07,0-6.61-2.54-6.61s-2.54,6.55-2.54,6.61a2.55,2.55,0,0,0,2,2.49V43a.51.51,0,1,0,1,0v-2.6a2.55,2.55,0,0,0,2-2.49ZM17,39.41a1.53,1.53,0,0,1-1.53-1.53c0-2.54.68-5.6,1.53-5.6s1.53,3.06,1.53,5.6A1.53,1.53,0,0,1,17,39.41Zm0,0"/><path class="cls-2" d="M36.88,38.9V23.64a.51.51,0,0,0-1,0V38.9a.51.51,0,1,0,1,0Zm0,0"/><path class="cls-2" d="M31.29,26.18h2a.51.51,0,0,0,.51-.51V22.62a.51.51,0,0,0-.51-.51h-2a.51.51,0,0,0-.51.51v3.05a.51.51,0,0,0,.51.51Zm.51-3.05h1v2h-1Zm0,0"/><path class="cls-2" d="M15,30.76a.51.51,0,0,0,.51-.51V26.18h5.6a.51.51,0,1,0,0-1h-5.6v-.51a.51.51,0,1,0-1,0v5.6a.51.51,0,0,0,.51.51Zm0,0"/></g></g></svg>