   <svg xmlns="http://www.w3.org/2000/svg" xmlns:xlink="http://www.w3.org/1999/xlink" viewBox="-5 -118 601.81 434.96"><defs>
                                                    <g id="anims">
                                                            <circle id="rp1" r="10px" />
                                                            <circle id="rp2" r="10px" />
                                                            <circle id="rp3" r="10px" />
                                                            <circle id="rp4" r="10px" />
                                                          </g>
                                                <style>.cls-1{fill:url(#linear-gradient);}.cls-2{fill:url(#linear-gradient-2);}.cls-3{fill:url(#linear-gradient-3);}.cls-4{fill:#90ffff;}.cls-4,.cls-6,.cls-8{opacity:0.21;}.cls-5,.cls-8{fill:#1cffff;}.cls-6{fill:#5bffff;}.cls-7{fill:#0effff;}
                                                 circle {
                fill: #0EFFFF;
                opacity: 0.3;
              }
              svg > circle:last-child {
                fill: #0EFFFF;
                opacity: 1;
              }
            #rp1 {
                animation: ripple1 0.7s linear infinite;
              }
              @keyframes ripple1 {
                0% {
                  transform: scale(3.5);
                  opacity: 0.3;
                }
                100% {
                  transform: scale(4.5);
                  opacity: 0.0;
                }
              }
              #rp2 {
                animation: ripple2 0.7s linear infinite;
              }
              @keyframes ripple2 {
                0% {
                  transform: scale(2.5);
                }
                100% {
                  transform: scale(3.5);
                }
              }
              #rp3 {
                animation: ripple3 0.7s linear infinite;
              }
              @keyframes ripple3 {
                0% {
                  transform: scale(1.5);
                }
                100% {
                  transform: scale(2.5);
                }
              }
              #rp4 {
                animation: ripple4 0.7s linear infinite;
              }
              @keyframes ripple4 {
                0% {
                  transform: scale(0.5);
                }
                100% {
                  transform: scale(1.5);
                }
              }</style><linearGradient id="linear-gradient" x1="0.65" y1="119.56" x2="460.3" y2="119.56" gradientUnits="userSpaceOnUse"><stop offset="0" stop-color="#76ffff" stop-opacity="0"/><stop offset="0.05" stop-color="#79ffff" stop-opacity="0.1"/><stop offset="0.16" stop-color="#7fffff" stop-opacity="0.36"/><stop offset="0.32" stop-color="#8affff" stop-opacity="0.76"/><stop offset="0.41" stop-color="#90ffff"/><stop offset="0.99" stop-color="#7affff" stop-opacity="0.05"/></linearGradient><linearGradient id="linear-gradient-2" x1="112.46" y1="115.99" x2="497.78" y2="115.99" gradientUnits="userSpaceOnUse"><stop offset="0" stop-color="#76ffff" stop-opacity="0"/><stop offset="0.05" stop-color="#6dffff" stop-opacity="0.1"/><stop offset="0.16" stop-color="#57ffff" stop-opacity="0.36"/><stop offset="0.32" stop-color="#34ffff" stop-opacity="0.76"/><stop offset="0.41" stop-color="#1fffff"/><stop offset="0.99" stop-color="#7affff" stop-opacity="0.05"/></linearGradient><linearGradient id="linear-gradient-3" x1="167.92" y1="120.54" x2="553.24" y2="120.54" gradientUnits="userSpaceOnUse"><stop offset="0" stop-color="#76ffff" stop-opacity="0"/><stop offset="0.05" stop-color="#71ffff" stop-opacity="0.1"/><stop offset="0.16" stop-color="#64ffff" stop-opacity="0.36"/><stop offset="0.32" stop-color="#4fffff" stop-opacity="0.76"/><stop offset="0.41" stop-color="#43ffff"/><stop offset="0.99" stop-color="#7affff" stop-opacity="0.05"/></linearGradient></defs><title>Asset 30</title><g id="Layer_2" data-name="Layer 2"><g id="Layer_1-2" data-name="Layer 1"><path class="cls-1" d="M1.24,216c36.8-8.84,64.59-38.62,86.65-67.67,26.3-34.63,47.51-74.64,80-104.13,15-13.59,34.74-24.68,55.12-16.47,17.84,7.19,30.4,24.49,41,39.71,22.93,32.85,45.06,66.72,77.24,91.46,33.92,26.08,80.26,38.27,119.2,15.55a1,1,0,0,0-1-1.72c-37.75,22-82.64,10.48-115.79-14.49-33.79-25.45-56-61.14-80.19-95-9.7-13.59-20.8-27.93-36-35.62S196.09,22.46,181.94,31c-17.59,10.67-31.36,27.41-43.8,43.5-12.81,16.57-24.37,34-36.35,51.21-25.15,36-55.93,77.51-101.08,88.36-1.25.3-.72,2.22.53,1.92Z"/><path class="cls-2" d="M113,220.36c33.59-10.77,56.11-44.58,73.34-73.29,21.42-35.68,38.22-74.73,64.15-107.55C261,26.2,277.83,8.18,296.8,14.63c16.54,5.62,26.83,24.06,34.85,38.36,19,33.83,35.22,69.46,62.24,97.94,13.54,14.28,30,26.58,49.41,31.27s38.78.31,54.65-11.62c1-.72,0-2.36-1-1.63-16.17,12.15-35.86,16.22-55.44,10.85-18.7-5.13-34.39-17.37-47.42-31.36-27.27-29.28-43.06-65.71-62.85-99.91-7.42-12.82-16.57-27.71-30.48-34.31s-27.75,0-38.39,9.55c-14.31,12.81-25,29.92-34.82,46.23-10.71,17.77-20.33,36.18-30.39,54.32-11.2,20.21-22.95,40.32-37.65,58.22-12.57,15.29-27.81,29.83-47,36-1.15.37-.66,2.19.5,1.82Z"/><path class="cls-3" d="M168.49,224.91c33.59-10.77,56.11-44.58,73.34-73.29C263.24,115.93,280,76.89,306,44.07c10.53-13.32,27.32-31.34,46.28-24.89,16.54,5.62,26.83,24.06,34.85,38.36,19,33.83,35.22,69.46,62.24,97.94,13.54,14.28,30,26.58,49.41,31.27s38.78.31,54.65-11.62c1-.72,0-2.36-1-1.63-16.17,12.15-35.86,16.22-55.44,10.85C478.31,179.22,462.63,167,449.6,153c-27.27-29.28-43.06-65.71-62.85-99.91-7.42-12.82-16.57-27.71-30.48-34.31s-27.75,0-38.39,9.55c-14.31,12.81-25,29.92-34.82,46.23-10.71,17.77-20.33,36.18-30.39,54.32-11.2,20.21-22.95,40.32-37.65,58.22-12.57,15.29-27.81,29.83-47,36-1.15.37-.66,2.19.5,1.82Z"/><circle class="cls-4 circle-ripple" cx="202.46" cy="26.11" r="14.35" transform="translate(-1.66 28.57) rotate(-8.04)"/><circle class="cls-4" cx="202.46" cy="26.11" r="10.81" transform="matrix(0.99, -0.14, 0.14, 0.99, -1.66, 28.57)"/><circle class="cls-4" cx="202.46" cy="26.11" r="7.97" transform="translate(-1.66 28.57) rotate(-8.04)"/><circle class="cls-5" cx="202.46" cy="26.11" r="3.71" transform="translate(-1.66 28.57) rotate(-8.04)"/><circle class="cls-6" cx="284.67" cy="14.36" r="14.35" transform="translate(0.79 39.95) rotate(-8.04)"/><circle class="cls-6" cx="284.67" cy="14.36" r="10.81" transform="translate(0.79 39.95) rotate(-8.04)"/><circle class="cls-6" cx="284.67" cy="14.36" r="7.97" transform="translate(0.79 39.95) rotate(-8.04)"/><circle class="cls-7" cx="284.67" cy="14.36" r="3.71" transform="translate(0.79 39.95) rotate(-8.04)"/><circle class="cls-8" cx="343.78" cy="18.87" r="14.35" transform="translate(0.74 48.25) rotate(-8.04)"/><circle class="cls-8" cx="343.78" cy="18.87" r="10.81" transform="translate(0.74 48.25) rotate(-8.04)"/><circle class="cls-8" cx="343.78" cy="18.87" r="7.97" transform="translate(0.74 48.25) rotate(-8.04)"/><circle class="cls-5" cx="343.78" cy="18.87" r="3.71" transform="translate(0.74 48.25) rotate(-8.04)"/></g></g>
                                                <use xlink:href="#anims" x="203" y="25"/>
                                                <use xlink:href="#anims" x="283" y="12"/>
                                                <use xlink:href="#anims" x="343" y="18"/>
                                            </svg>