<svg width="431" height="349" viewBox="0 0 431 349" fill="none" xmlns="http://www.w3.org/2000/svg">
<circle cx="76" cy="219" r="18.5" stroke="#0EFFFF" stroke-width="5"/>
<circle cx="392.5" cy="139.5" r="10.5" stroke="#0EFFFF" stroke-width="4"/>
<circle cx="422" cy="284" r="6.5" stroke="#0EFFFF" stroke-width="5"/>
<g opacity="0.2443">
<path opacity="0.2443" d="M99.2998 49.3L81.5998 98L66.2998 88.3L95.8998 50.3L99.2998 49.3ZM81.2998 97.1L98.1998 50.3L96.1998 50.9L67.1998 88.1L81.2998 97.1Z" stroke="#0EFFFF" stroke-width="0.915" stroke-miterlimit="10"/>
</g>
<g opacity="0.2443">
<path opacity="0.2443" d="M52 203.3L1 200.8L6.1 183.9L50.2 200.5L52 203.3ZM1.8 200.3L50.8 202.7L49.7 201.1L6.4 184.8L1.8 200.3Z" stroke="#0EFFFF" stroke-width="0.8933" stroke-miterlimit="10"/>
</g>
<g opacity="0.2443">
<path opacity="0.2443" d="M72.7998 347L77.1998 266.9L104.3 274.4L77.2998 344L72.7998 347ZM78.0998 268.2L73.8998 345.2L76.4998 343.4L103 275.1L78.0998 268.2Z" stroke="#0EFFFF" stroke-width="1.4173" stroke-miterlimit="10"/>
</g>
<g opacity="0.054651">
<path opacity="0.054651" d="M100.7 86.5L147.1 169L81 97.5L100.7 86.5ZM144 164.7L100.5 87.3L82 97.6L144 164.7Z" stroke="#0EFFFF" stroke-width="0.915" stroke-miterlimit="10"/>
</g>
<g opacity="0.341">
<path opacity="0.341" d="M234.3 29.2L269.8 100.9L227.5 78.9L234.3 29.2ZM268.4 99.5L234.6 31.3L228.2 78.6L268.4 99.5Z" stroke="#0EFFFF" stroke-width="0.915" stroke-miterlimit="10"/>
</g>
<path d="M319.9 70.1L291.6 130.3L268.6 100.2L319.9 70.1ZM291.5 129.1L318.5 71.7L269.5 100.3L291.5 129.1Z" stroke="#0EFFFF" stroke-width="0.915" stroke-miterlimit="10"/>
<g opacity="0.3403">
<path opacity="0.3403" d="M321.4 67.6L353.6 92.7L349.8 121.1L318.8 70.8L321.4 67.6ZM353 93L321.5 68.5L319.6 70.9L349.5 119.3L353 93Z" stroke="#0EFFFF" stroke-width="0.915" stroke-miterlimit="10"/>
</g>
<g opacity="0.1984">
<path opacity="0.1984" d="M236.1 1L252.9 14.1L234.1 30.9L236.1 1ZM251.9 14.1L236.6 2.2L234.8 29.5L251.9 14.1Z" stroke="#0EFFFF" stroke-width="0.915" stroke-miterlimit="10"/>
</g>
<g opacity="0.2669">
<path opacity="0.2669" d="M268 25.9L318.6 65.4L319.7 71.4L233.4 30L268 25.9ZM318 65.7L267.8 26.6L235.5 30.4L318.8 70.4L318 65.7Z" stroke="#0EFFFF" stroke-width="0.915" stroke-miterlimit="10"/>
</g>
<g opacity="0.3556">
<path opacity="0.3556" d="M209 105.2L145.5 167.3L100 86.5L209 105.2ZM145.6 166.3L207.7 105.6L101.2 87.3L145.6 166.3Z" stroke="#0EFFFF" stroke-width="0.915" stroke-miterlimit="10"/>
</g>
<g opacity="0.058722">
<path opacity="0.058722" d="M151.8 4.29999L228.2 78.7L208.2 106L151.8 4.29999ZM227.5 78.7L154.4 7.69999L208.4 104.9L227.5 78.7Z" stroke="#0EFFFF" stroke-width="0.915" stroke-miterlimit="10"/>
</g>
<g opacity="0.5176">
<path opacity="0.5176" d="M332.3 161.9V162.2L334.9 206L272.6 164.1L332.3 161.9ZM334.3 204.8L331.8 162.5L274.6 164.6L334.3 204.8Z" stroke="#0EFFFF" stroke-width="0.915" stroke-miterlimit="10"/>
</g>
<g opacity="0.7235">
<path opacity="0.7235" d="M331.6 161.4L348.1 176.7L338.8 200.4L331.6 161.4ZM347.3 176.9L332.5 163.1L338.9 198.2L347.3 176.9Z" stroke="#0EFFFF" stroke-width="0.915" stroke-miterlimit="10"/>
</g>
<g opacity="0.7235">
<path opacity="0.7235" d="M342.3 274.5L375.7 293.3L355 324.4L342.3 274.5ZM374.2 293.6L344.2 276.7L355.7 321.6L374.2 293.6Z" stroke="#0EFFFF" stroke-width="1.497" stroke-miterlimit="10"/>
</g>
<g opacity="0.3334">
<path opacity="0.3334" d="M397.7 137L347.4 177.4L349.5 119.8L397.7 137ZM348 176.1L396.4 137.2L350 120.6L348 176.1Z" stroke="#0EFFFF" stroke-width="0.915" stroke-miterlimit="10"/>
</g>
<g opacity="0.8014">
<path opacity="0.8014" d="M228 78L231.2 91.9L207.1 106.5L228 78ZM230.6 91.6L227.8 79.5L209.6 104.4L230.6 91.6Z" stroke="#0EFFFF" stroke-width="0.915" stroke-miterlimit="10"/>
</g>
<g opacity="0.38">
<path opacity="0.38" d="M271.3 101L230.6 92L227.4 78.1L271.3 101ZM231.2 91.5L266.9 99.4L228.3 79.3L231.2 91.5Z" stroke="#0EFFFF" stroke-width="0.915" stroke-miterlimit="10"/>
</g>
<path d="M210.259 275.46V238.6C210.259 237.329 209.227 236.3 207.954 236.3H192.581C191.307 236.3 190.275 237.329 190.275 238.6C190.275 239.87 191.307 240.899 192.581 240.899H205.648V275.46C201.246 276.502 197.961 280.452 197.961 285.155C197.961 290.651 202.444 295.121 207.954 295.121C213.463 295.121 217.946 290.651 217.946 285.155C217.946 280.452 214.661 276.502 210.259 275.46ZM207.954 290.522C204.987 290.522 202.573 288.114 202.573 285.155C202.573 282.197 204.987 279.789 207.954 279.789C210.92 279.789 213.334 282.197 213.334 285.155C213.334 288.114 210.92 290.522 207.954 290.522Z" fill="#0EFFFF"/>
<path d="M234.856 275.46V238.6C234.856 237.329 233.824 236.3 232.55 236.3H217.177C215.904 236.3 214.872 237.329 214.872 238.6C214.872 239.87 215.904 240.899 217.177 240.899H230.244V275.46C225.843 276.502 222.558 280.452 222.558 285.155C222.558 290.651 227.04 295.121 232.55 295.121C238.06 295.121 242.542 290.651 242.542 285.155C242.542 280.452 239.257 276.502 234.856 275.46ZM232.55 290.522C229.583 290.522 227.169 288.114 227.169 285.155C227.169 282.197 229.583 279.789 232.55 279.789C235.517 279.789 237.93 282.197 237.93 285.155C237.93 288.114 235.517 290.522 232.55 290.522Z" fill="#0EFFFF"/>
<path d="M274.056 259.857C269.34 259.857 265.38 263.134 264.336 267.523H259.452V238.6C259.452 237.329 258.42 236.3 257.146 236.3H241.774C240.5 236.3 239.468 237.329 239.468 238.6C239.468 239.87 240.5 240.899 241.774 240.899H254.841V269.823C254.841 271.094 255.873 272.123 257.146 272.123H264.336C265.38 276.513 269.34 279.789 274.056 279.789C279.566 279.789 284.049 275.319 284.049 269.823C284.049 264.328 279.566 259.857 274.056 259.857ZM274.056 275.19C271.09 275.19 268.676 272.782 268.676 269.823C268.676 266.865 271.09 264.457 274.056 264.457C277.023 264.457 279.437 266.865 279.437 269.823C279.437 272.782 277.023 275.19 274.056 275.19Z" fill="#0EFFFF"/>
<path d="M287.013 200.54C283.905 196.692 279.684 193.84 274.987 192.386C274.459 181.499 269.93 171.342 262.124 163.621C253.894 155.482 242.98 151 231.39 151C216.17 151 202.087 158.915 194.167 171.786C192.242 171.181 190.24 170.875 188.192 170.875C178.773 170.875 170.673 177.506 168.719 186.546C156.622 189.676 148 200.672 148 213.279C148 228.509 160.423 240.899 175.693 240.899H181.051V267.523H176.168C175.124 263.134 171.163 259.857 166.447 259.857C160.937 259.857 156.455 264.328 156.455 269.823C156.455 275.319 160.937 279.789 166.447 279.789C171.163 279.789 175.124 276.513 176.168 272.123H183.357C184.631 272.123 185.663 271.094 185.663 269.823V238.6C185.663 237.329 184.631 236.3 183.357 236.3H175.693C162.966 236.3 152.612 225.973 152.612 213.279C152.612 202.325 160.42 192.83 171.177 190.702C172.147 190.51 172.887 189.723 173.015 188.745C174.008 181.18 180.532 175.475 188.192 175.475C190.3 175.475 192.343 175.896 194.266 176.726C195.357 177.197 196.626 176.764 197.2 175.728C204.083 163.312 217.183 155.6 231.39 155.6C252.722 155.6 270.234 172.906 270.426 194.179C270.436 195.241 271.174 196.159 272.212 196.398C281.444 198.529 287.892 206.625 287.892 216.086C287.892 227.232 278.801 236.3 267.625 236.3H266.37C265.096 236.3 264.064 237.329 264.064 238.6C264.064 239.87 265.096 240.899 266.37 240.899H267.625C281.343 240.899 292.504 229.768 292.504 216.086C292.504 210.445 290.554 204.924 287.013 200.54ZM166.447 275.189C163.481 275.189 161.067 272.782 161.067 269.823C161.067 266.864 163.481 264.457 166.447 264.457C169.414 264.457 171.828 266.864 171.828 269.823C171.828 272.782 169.414 275.189 166.447 275.189Z" fill="#0EFFFF"/>
<path d="M260.434 196.568H260.455C261.728 196.557 262.751 195.518 262.74 194.248C262.706 190.459 261.989 186.752 260.609 183.23C260.145 182.047 258.809 181.462 257.622 181.924C256.436 182.386 255.85 183.72 256.313 184.903C257.488 187.903 258.099 191.061 258.128 194.289C258.14 195.553 259.17 196.568 260.434 196.568Z" fill="#0EFFFF"/>
<path d="M252.005 177.603C252.461 178.154 253.12 178.438 253.784 178.438C254.301 178.438 254.822 178.266 255.251 177.911C256.233 177.102 256.372 175.653 255.56 174.674C249.556 167.424 240.746 163.266 231.39 163.266C230.116 163.266 229.084 164.295 229.084 165.565C229.084 166.836 230.116 167.865 231.39 167.865C239.365 167.865 246.879 171.414 252.005 177.603Z" fill="#0EFFFF"/>
</svg>
