<svg width="465" height="349" viewBox="0 0 465 349" fill="none" xmlns="http://www.w3.org/2000/svg">
<path d="M287.989 235.289C287.876 232.378 285.487 230.044 282.569 230.044L269.717 229.973V199.426C269.717 198.873 269.498 198.343 269.109 197.952L244.841 173.611C244.837 173.607 244.833 173.603 244.829 173.599C244.785 173.556 244.739 173.513 244.691 173.474C244.678 173.463 244.664 173.454 244.65 173.444C244.61 173.412 244.569 173.381 244.527 173.352C244.516 173.344 244.503 173.338 244.492 173.331C244.446 173.301 244.4 173.273 244.352 173.247C244.344 173.242 244.335 173.239 244.326 173.234C244.275 173.208 244.222 173.182 244.168 173.159C244.162 173.157 244.156 173.155 244.151 173.153C244.094 173.13 244.036 173.109 243.977 173.091C243.971 173.089 243.963 173.088 243.956 173.085C243.899 173.069 243.84 173.053 243.781 173.041C243.765 173.038 243.747 173.037 243.731 173.034C243.681 173.025 243.631 173.016 243.58 173.011C243.51 173.004 243.441 173 243.371 173H189.87C187.114 173 184.871 175.25 184.871 178.014V230.043H173.442C170.513 230.043 168.124 232.378 168.011 235.288C168.004 235.359 168 235.43 168 235.502V255.655C168 258.428 170.249 260.684 173.014 260.684H184.871V286.071C181.755 286.575 178.823 288.076 176.586 290.362C173.836 293.174 172.362 296.854 172.436 300.723C172.509 304.553 174.051 308.142 176.778 310.828C179.509 313.519 183.121 315 186.949 315H255.201C255.225 315 255.248 314.995 255.272 314.994C263.243 314.95 269.717 308.325 269.717 300.194V260.685H282.986C285.751 260.685 288 258.428 288 255.655V235.502C288 235.43 287.996 235.359 287.989 235.289ZM245.45 180.118L263.834 198.558H245.45V180.118ZM173.442 234.213H184.871V236.791H173.442C172.733 236.791 172.157 236.213 172.157 235.502C172.157 234.791 172.734 234.213 173.442 234.213ZM173.014 256.515C172.541 256.515 172.157 256.129 172.157 255.655V240.801C172.57 240.902 172.999 240.961 173.442 240.961H200.148C201.296 240.961 202.226 240.027 202.226 238.876V233.47L220.758 248.361C220.902 248.477 220.932 248.623 220.932 248.726C220.932 248.828 220.902 248.974 220.758 249.09L202.226 263.982V258.6C202.226 257.448 201.296 256.515 200.148 256.515H173.014ZM265.56 300.194C265.56 306.052 260.913 310.822 255.201 310.827C255.2 310.827 255.2 310.827 255.2 310.827L254.999 310.829C249.399 310.721 244.843 306.061 244.843 300.441C244.843 294.711 249.49 290.05 255.201 290.05C256.35 290.05 257.28 289.117 257.28 287.966C257.28 286.814 256.349 285.881 255.201 285.881H232.988C231.84 285.881 230.91 286.814 230.91 287.966C230.91 289.117 231.84 290.05 232.988 290.05H245.042C242.355 292.694 240.686 296.375 240.686 300.441C240.686 304.28 242.163 307.903 244.845 310.642C244.907 310.706 244.969 310.769 245.033 310.831H186.949C181.346 310.831 176.7 306.261 176.593 300.644C176.541 297.903 177.592 295.288 179.554 293.282C181.563 291.228 184.348 290.05 187.195 290.05H224.674C225.823 290.05 226.753 289.117 226.753 287.966C226.753 286.814 225.822 285.881 224.674 285.881H189.028V260.685H198.069V265.035C198.069 266.457 198.863 267.723 200.141 268.338C200.651 268.584 201.192 268.704 201.729 268.704C202.54 268.704 203.34 268.429 204.006 267.895L223.357 252.345C224.458 251.46 225.089 250.141 225.089 248.726C225.089 247.311 224.458 245.992 223.357 245.107L204.006 229.557C202.9 228.668 201.419 228.499 200.141 229.114C198.863 229.729 198.069 230.995 198.069 232.416V236.791H189.028V178.014C189.028 177.548 189.406 177.17 189.87 177.17H241.293V200.644C241.293 201.795 242.223 202.728 243.371 202.728H265.56V236.791H257.354C255.155 236.791 253.365 238.586 253.365 240.792V256.683C253.365 258.89 255.155 260.685 257.354 260.685H265.56V300.194ZM283.843 255.655C283.843 256.129 283.459 256.515 282.986 256.515H257.522V240.961H282.558C283.001 240.961 283.43 240.902 283.843 240.801V255.655ZM282.558 236.791H269.717V234.143L282.558 234.213C283.267 234.213 283.843 234.792 283.843 235.502C283.843 236.213 283.267 236.791 282.558 236.791Z" fill="#0EFFFF"/>
<path d="M206.522 191.045H200.702C199.554 191.045 198.624 191.978 198.624 193.13C198.624 194.281 199.554 195.214 200.702 195.214H206.522C207.671 195.214 208.601 194.281 208.601 193.13C208.601 191.978 207.671 191.045 206.522 191.045Z" fill="#0EFFFF"/>
<path d="M234.79 191.045H215.113C213.965 191.045 213.035 191.978 213.035 193.13C213.035 194.281 213.965 195.214 215.113 195.214H234.79C235.938 195.214 236.868 194.281 236.868 193.13C236.868 191.978 235.938 191.045 234.79 191.045Z" fill="#0EFFFF"/>
<path d="M251.141 207.724H245.321C244.173 207.724 243.243 208.657 243.243 209.809C243.243 210.96 244.173 211.893 245.321 211.893H251.141C252.289 211.893 253.219 210.96 253.219 209.809C253.219 208.657 252.289 207.724 251.141 207.724Z" fill="#0EFFFF"/>
<path d="M236.73 207.724H200.702C199.554 207.724 198.624 208.657 198.624 209.809C198.624 210.96 199.554 211.893 200.702 211.893H236.73C237.878 211.893 238.809 210.96 238.809 209.809C238.809 208.657 237.878 207.724 236.73 207.724Z" fill="#0EFFFF"/>
<path d="M206.522 220.233H200.702C199.554 220.233 198.624 221.166 198.624 222.318C198.624 223.469 199.554 224.403 200.702 224.403H206.522C207.671 224.403 208.601 223.469 208.601 222.318C208.601 221.166 207.67 220.233 206.522 220.233Z" fill="#0EFFFF"/>
<path d="M251.141 220.233H215.113C213.965 220.233 213.035 221.166 213.035 222.318C213.035 223.469 213.965 224.403 215.113 224.403H251.141C252.289 224.403 253.219 223.469 253.219 222.318C253.219 221.166 252.289 220.233 251.141 220.233Z" fill="#0EFFFF"/>
<path d="M206.522 272.216H200.702C199.554 272.216 198.624 273.149 198.624 274.3C198.624 275.452 199.554 276.385 200.702 276.385H206.522C207.671 276.385 208.601 275.452 208.601 274.3C208.601 273.149 207.67 272.216 206.522 272.216Z" fill="#0EFFFF"/>
<path d="M251.141 272.216H215.113C213.965 272.216 213.035 273.149 213.035 274.3C213.035 275.452 213.965 276.385 215.113 276.385H251.141C252.289 276.385 253.219 275.452 253.219 274.3C253.219 273.149 252.289 272.216 251.141 272.216Z" fill="#0EFFFF"/>
<path d="M246.43 234.41H224.813C223.665 234.41 222.735 235.344 222.735 236.495C222.735 237.646 223.665 238.58 224.813 238.58H246.43C247.578 238.58 248.508 237.646 248.508 236.495C248.508 235.344 247.578 234.41 246.43 234.41Z" fill="#0EFFFF"/>
<path d="M237.284 253.313H230.356C229.207 253.313 228.277 254.246 228.277 255.397C228.277 256.549 229.208 257.482 230.356 257.482H237.284C238.432 257.482 239.363 256.549 239.363 255.397C239.363 254.246 238.432 253.313 237.284 253.313Z" fill="#0EFFFF"/>
<g opacity="0.2443">
<path opacity="0.2443" d="M99.2998 49.3L81.5998 98L66.2998 88.3L95.8998 50.3L99.2998 49.3ZM81.2998 97.1L98.1998 50.3L96.1998 50.9L67.1998 88.1L81.2998 97.1Z" stroke="#0EFFFF" stroke-width="0.915" stroke-miterlimit="10"/>
</g>
<g opacity="0.2443">
<path opacity="0.2443" d="M52 203.3L1 200.8L6.1 183.9L50.2 200.5L52 203.3ZM1.8 200.3L50.8 202.7L49.7 201.1L6.4 184.8L1.8 200.3Z" stroke="#0EFFFF" stroke-width="0.8933" stroke-miterlimit="10"/>
</g>
<g opacity="0.2443">
<path opacity="0.2443" d="M72.7998 347L77.1998 266.9L104.3 274.4L77.2998 344L72.7998 347ZM78.0998 268.2L73.8998 345.2L76.4998 343.4L103 275.1L78.0998 268.2Z" stroke="#0EFFFF" stroke-width="1.4173" stroke-miterlimit="10"/>
</g>
<g opacity="0.054651">
<path opacity="0.054651" d="M100.7 86.5L147.1 169L81 97.5L100.7 86.5ZM144 164.7L100.5 87.3L82 97.6L144 164.7Z" stroke="#0EFFFF" stroke-width="0.915" stroke-miterlimit="10"/>
</g>
<g opacity="0.341">
<path opacity="0.341" d="M234.3 29.2L269.8 100.9L227.5 78.9L234.3 29.2ZM268.4 99.5L234.6 31.3L228.2 78.6L268.4 99.5Z" stroke="#0EFFFF" stroke-width="0.915" stroke-miterlimit="10"/>
</g>
<path d="M319.9 70.1L291.6 130.3L268.6 100.2L319.9 70.1ZM291.5 129.1L318.5 71.7L269.5 100.3L291.5 129.1Z" stroke="#0EFFFF" stroke-width="0.915" stroke-miterlimit="10"/>
<g opacity="0.3403">
<path opacity="0.3403" d="M321.4 67.6L353.6 92.7L349.8 121.1L318.8 70.8L321.4 67.6ZM353 93L321.5 68.5L319.6 70.9L349.5 119.3L353 93Z" stroke="#0EFFFF" stroke-width="0.915" stroke-miterlimit="10"/>
</g>
<g opacity="0.1984">
<path opacity="0.1984" d="M236.1 1L252.9 14.1L234.1 30.9L236.1 1ZM251.9 14.1L236.6 2.2L234.8 29.5L251.9 14.1Z" stroke="#0EFFFF" stroke-width="0.915" stroke-miterlimit="10"/>
</g>
<g opacity="0.2669">
<path opacity="0.2669" d="M268 25.9L318.6 65.4L319.7 71.4L233.4 30L268 25.9ZM318 65.7L267.8 26.6L235.5 30.4L318.8 70.4L318 65.7Z" stroke="#0EFFFF" stroke-width="0.915" stroke-miterlimit="10"/>
</g>
<g opacity="0.3556">
<path opacity="0.3556" d="M209 105.2L145.5 167.3L100 86.5L209 105.2ZM145.6 166.3L207.7 105.6L101.2 87.3L145.6 166.3Z" stroke="#0EFFFF" stroke-width="0.915" stroke-miterlimit="10"/>
</g>
<g opacity="0.058722">
<path opacity="0.058722" d="M151.8 4.29999L228.2 78.7L208.2 106L151.8 4.29999ZM227.5 78.7L154.4 7.69999L208.4 104.9L227.5 78.7Z" stroke="#0EFFFF" stroke-width="0.915" stroke-miterlimit="10"/>
</g>
<g opacity="0.5176">
<path opacity="0.5176" d="M332.3 161.9V162.2L334.9 206L272.6 164.1L332.3 161.9ZM334.3 204.8L331.8 162.5L274.6 164.6L334.3 204.8Z" stroke="#0EFFFF" stroke-width="0.915" stroke-miterlimit="10"/>
</g>
<g opacity="0.7235">
<path opacity="0.7235" d="M331.6 161.4L348.1 176.7L338.8 200.4L331.6 161.4ZM347.3 176.9L332.5 163.1L338.9 198.2L347.3 176.9Z" stroke="#0EFFFF" stroke-width="0.915" stroke-miterlimit="10"/>
</g>
<g opacity="0.7235">
<path opacity="0.7235" d="M342.3 274.5L375.7 293.3L355 324.4L342.3 274.5ZM374.2 293.6L344.2 276.7L355.7 321.6L374.2 293.6Z" stroke="#0EFFFF" stroke-width="1.497" stroke-miterlimit="10"/>
</g>
<g opacity="0.3334">
<path opacity="0.3334" d="M397.7 137L347.4 177.4L349.5 119.8L397.7 137ZM348 176.1L396.4 137.2L350 120.6L348 176.1Z" stroke="#0EFFFF" stroke-width="0.915" stroke-miterlimit="10"/>
</g>
<g opacity="0.8014">
<path opacity="0.8014" d="M228 78L231.2 91.9L207.1 106.5L228 78ZM230.6 91.6L227.8 79.5L209.6 104.4L230.6 91.6Z" stroke="#0EFFFF" stroke-width="0.915" stroke-miterlimit="10"/>
</g>
<g opacity="0.38">
<path opacity="0.38" d="M271.3 101L230.6 92L227.4 78.1L271.3 101ZM231.2 91.5L266.9 99.4L228.3 79.3L231.2 91.5Z" stroke="#0EFFFF" stroke-width="0.915" stroke-miterlimit="10"/>
</g>
<circle cx="110" cy="229" r="18.5" stroke="#0EFFFF" stroke-width="5"/>
<circle cx="426.5" cy="149.5" r="10.5" stroke="#0EFFFF" stroke-width="4"/>
<circle cx="456" cy="294" r="6.5" stroke="#0EFFFF" stroke-width="5"/>
</svg>
