<svg width="426" height="349" viewBox="0 0 426 349" fill="none" xmlns="http://www.w3.org/2000/svg">
<circle cx="71" cy="158" r="18.5" stroke="#0EFFFF" stroke-width="5"/>
<circle cx="387.5" cy="78.5" r="10.5" stroke="#0EFFFF" stroke-width="4"/>
<circle cx="417" cy="223" r="6.5" stroke="#0EFFFF" stroke-width="5"/>
<g opacity="0.2443">
<path opacity="0.2443" d="M99.2998 49.3L81.5998 98L66.2998 88.3L95.8998 50.3L99.2998 49.3ZM81.2998 97.1L98.1998 50.3L96.1998 50.9L67.1998 88.1L81.2998 97.1Z" stroke="#0EFFFF" stroke-width="0.915" stroke-miterlimit="10"/>
</g>
<g opacity="0.2443">
<path opacity="0.2443" d="M52 203.3L1 200.8L6.1 183.9L50.2 200.5L52 203.3ZM1.8 200.3L50.8 202.7L49.7 201.1L6.4 184.8L1.8 200.3Z" stroke="#0EFFFF" stroke-width="0.8933" stroke-miterlimit="10"/>
</g>
<g opacity="0.2443">
<path opacity="0.2443" d="M72.7998 347L77.1998 266.9L104.3 274.4L77.2998 344L72.7998 347ZM78.0998 268.2L73.8998 345.2L76.4998 343.4L103 275.1L78.0998 268.2Z" stroke="#0EFFFF" stroke-width="1.4173" stroke-miterlimit="10"/>
</g>
<g opacity="0.054651">
<path opacity="0.054651" d="M100.7 86.5L147.1 169L81 97.5L100.7 86.5ZM144 164.7L100.5 87.3L82 97.6L144 164.7Z" stroke="#0EFFFF" stroke-width="0.915" stroke-miterlimit="10"/>
</g>
<g opacity="0.341">
<path opacity="0.341" d="M234.3 29.2L269.8 100.9L227.5 78.9L234.3 29.2ZM268.4 99.5L234.6 31.3L228.2 78.6L268.4 99.5Z" stroke="#0EFFFF" stroke-width="0.915" stroke-miterlimit="10"/>
</g>
<path d="M319.9 70.1001L291.6 130.3L268.6 100.2L319.9 70.1001ZM291.5 129.1L318.5 71.7001L269.5 100.3L291.5 129.1Z" stroke="#0EFFFF" stroke-width="0.915" stroke-miterlimit="10"/>
<g opacity="0.3403">
<path opacity="0.3403" d="M321.4 67.6001L353.6 92.7001L349.8 121.1L318.8 70.8001L321.4 67.6001ZM353 93.0001L321.5 68.5001L319.6 70.9001L349.5 119.3L353 93.0001Z" stroke="#0EFFFF" stroke-width="0.915" stroke-miterlimit="10"/>
</g>
<g opacity="0.1984">
<path opacity="0.1984" d="M236.1 1L252.9 14.1L234.1 30.9L236.1 1ZM251.9 14.1L236.6 2.2L234.8 29.5L251.9 14.1Z" stroke="#0EFFFF" stroke-width="0.915" stroke-miterlimit="10"/>
</g>
<g opacity="0.2669">
<path opacity="0.2669" d="M268 25.8999L318.6 65.3999L319.7 71.3999L233.4 29.9999L268 25.8999ZM318 65.6999L267.8 26.5999L235.5 30.3999L318.8 70.3999L318 65.6999Z" stroke="#0EFFFF" stroke-width="0.915" stroke-miterlimit="10"/>
</g>
<g opacity="0.3556">
<path opacity="0.3556" d="M209 105.2L145.5 167.3L100 86.5L209 105.2ZM145.6 166.3L207.7 105.6L101.2 87.3L145.6 166.3Z" stroke="#0EFFFF" stroke-width="0.915" stroke-miterlimit="10"/>
</g>
<g opacity="0.058722">
<path opacity="0.058722" d="M151.8 4.30005L228.2 78.7001L208.2 106L151.8 4.30005ZM227.5 78.7001L154.4 7.70005L208.4 104.9L227.5 78.7001Z" stroke="#0EFFFF" stroke-width="0.915" stroke-miterlimit="10"/>
</g>
<g opacity="0.5176">
<path opacity="0.5176" d="M332.3 161.9V162.2L334.9 206L272.6 164.1L332.3 161.9ZM334.3 204.8L331.8 162.5L274.6 164.6L334.3 204.8Z" stroke="#0EFFFF" stroke-width="0.915" stroke-miterlimit="10"/>
</g>
<g opacity="0.7235">
<path opacity="0.7235" d="M331.6 161.4L348.1 176.7L338.8 200.4L331.6 161.4ZM347.3 176.9L332.5 163.1L338.9 198.2L347.3 176.9Z" stroke="#0EFFFF" stroke-width="0.915" stroke-miterlimit="10"/>
</g>
<g opacity="0.7235">
<path opacity="0.7235" d="M342.3 274.5L375.7 293.3L355 324.4L342.3 274.5ZM374.2 293.6L344.2 276.7L355.7 321.6L374.2 293.6Z" stroke="#0EFFFF" stroke-width="1.497" stroke-miterlimit="10"/>
</g>
<g opacity="0.3334">
<path opacity="0.3334" d="M397.7 137L347.4 177.4L349.5 119.8L397.7 137ZM348 176.1L396.4 137.2L350 120.6L348 176.1Z" stroke="#0EFFFF" stroke-width="0.915" stroke-miterlimit="10"/>
</g>
<g opacity="0.8014">
<path opacity="0.8014" d="M228 78L231.2 91.9L207.1 106.5L228 78ZM230.6 91.6L227.8 79.5L209.6 104.4L230.6 91.6Z" stroke="#0EFFFF" stroke-width="0.915" stroke-miterlimit="10"/>
</g>
<g opacity="0.38">
<path opacity="0.38" d="M271.3 101L230.6 92.0001L227.4 78.1001L271.3 101ZM231.2 91.5001L266.9 99.4001L228.3 79.3001L231.2 91.5001Z" stroke="#0EFFFF" stroke-width="0.915" stroke-miterlimit="10"/>
</g>
<path d="M155.8 290.469C146.538 290.469 139 297.987 139 307.224C139 308.548 140.073 309.618 141.4 309.618H170.2C171.527 309.618 172.6 308.548 172.6 307.224C172.6 297.987 165.062 290.469 155.8 290.469ZM144.042 304.831C144.998 300.151 148.708 296.475 153.4 295.52V300.044H158.2V295.52C162.892 296.477 166.602 300.151 167.557 304.831H144.042Z" fill="#0EFFFF"/>
<path d="M280.6 268.926H276.39C276.258 268.594 276.122 268.263 275.973 267.931L278.951 264.96C279.89 264.024 279.89 262.511 278.951 261.575L268.77 251.422C268.274 250.926 267.618 250.711 266.968 250.742C270.772 248.729 273.4 244.786 273.4 240.203V177.968C273.4 171.369 268.017 166 261.4 166H151C144.384 166 139 171.369 139 177.968V240.203C139 246.802 144.384 252.171 151 252.171H182.32L173.253 268.926H172.6H169C164.368 268.926 160.6 272.684 160.6 277.304C160.6 281.924 164.368 285.682 169 285.682H220.6C220.6 287.005 221.673 288.075 223 288.075H227.21C227.342 288.408 227.479 288.738 227.627 289.071L224.649 292.042C223.711 292.978 223.711 294.49 224.649 295.426L234.83 305.58C235.768 306.516 237.285 306.516 238.223 305.58L241.202 302.61C241.535 302.758 241.867 302.894 242.2 303.026V307.224C242.2 308.548 243.273 309.618 244.6 309.618H259C260.327 309.618 261.4 308.548 261.4 307.224V303.026C261.734 302.894 262.065 302.758 262.398 302.61L265.377 305.58C266.315 306.516 267.832 306.516 268.77 305.58L278.951 295.426C279.89 294.49 279.89 292.978 278.951 292.042L275.973 289.071C276.122 288.738 276.258 288.408 276.39 288.075H280.6C281.927 288.075 283 287.005 283 285.682V271.32C283 269.996 281.927 268.926 280.6 268.926ZM143.8 177.968C143.8 174.009 147.031 170.787 151 170.787H261.4C265.37 170.787 268.6 174.009 268.6 177.968V228.235H143.8V177.968ZM151 247.384C147.031 247.384 143.8 244.162 143.8 240.203V233.022H268.6V240.203C268.6 244.162 265.37 247.384 261.4 247.384H259H244.6H226.058H186.343H151ZM265.346 251.453L262.398 254.392C262.065 254.244 261.734 254.107 261.4 253.976V252.171C262.79 252.171 264.102 251.888 265.346 251.453ZM242.2 252.171V253.976C241.867 254.107 241.535 254.244 241.202 254.392L238.975 252.171H242.2ZM234.076 252.171L232.007 254.234L230.599 252.171H234.076ZM220.6 280.894H169C167.016 280.894 165.4 279.284 165.4 277.304C165.4 275.324 167.016 273.714 169 273.714H172.6H174.684H220.6V280.894ZM178.707 268.924L187.773 252.171H224.791L228.554 257.679L224.649 261.573C223.711 262.509 223.711 264.022 224.649 264.958L227.627 267.928C227.479 268.261 227.342 268.591 227.21 268.924H223H178.707ZM278.2 283.288H274.698C273.65 283.288 272.726 283.966 272.409 284.961C272.044 286.117 271.552 287.295 270.945 288.454C270.46 289.382 270.635 290.514 271.377 291.254L273.863 293.734L267.076 300.503L264.59 298.023C263.846 297.284 262.713 297.111 261.782 297.592C260.62 298.198 259.439 298.689 258.28 299.053C257.279 299.371 256.6 300.292 256.6 301.339V304.831H247V301.339C247 300.292 246.321 299.371 245.322 299.055C244.163 298.691 242.982 298.2 241.821 297.595C240.89 297.114 239.755 297.286 239.013 298.026L236.527 300.506L229.739 293.736L232.226 291.257C232.967 290.517 233.143 289.385 232.658 288.456C232.051 287.297 231.559 286.12 231.194 284.964C230.875 283.966 229.951 283.288 228.902 283.288H225.4V273.714H228.902C229.951 273.714 230.875 273.036 231.191 272.04C231.556 270.884 232.048 269.707 232.655 268.548C233.14 267.619 232.965 266.487 232.223 265.748L229.737 263.268L236.524 256.499L239.011 258.978C239.752 259.72 240.887 259.893 241.819 259.409C242.98 258.804 244.161 258.313 245.32 257.949C246.321 257.631 247 256.709 247 255.663V252.171H256.6V255.663C256.6 256.709 257.279 257.631 258.278 257.947C259.437 258.311 260.618 258.801 261.779 259.407C262.71 259.89 263.843 259.718 264.587 258.976L267.074 256.496L273.861 263.265L271.374 265.745C270.633 266.485 270.458 267.617 270.942 268.546C271.55 269.704 272.042 270.882 272.406 272.038C272.726 273.036 273.65 273.714 274.698 273.714H278.2V283.288Z" fill="#0EFFFF"/>
<path d="M251.799 264.139C243.858 264.139 237.399 270.58 237.399 278.501C237.399 286.421 243.858 292.863 251.799 292.863C259.741 292.863 266.199 286.421 266.199 278.501C266.199 270.58 259.741 264.139 251.799 264.139ZM251.799 288.075C246.505 288.075 242.199 283.781 242.199 278.501C242.199 273.22 246.505 268.926 251.799 268.926C257.094 268.926 261.399 273.22 261.399 278.501C261.399 283.781 257.094 288.075 251.799 288.075Z" fill="#0EFFFF"/>
<path d="M186.297 184.448L182.903 181.063L166.103 197.819C165.165 198.755 165.165 200.267 166.103 201.203L182.903 217.959L186.297 214.574L171.194 199.511L186.297 184.448Z" fill="#0EFFFF"/>
<path d="M239.096 197.819L222.296 181.063L218.903 184.448L234.006 199.511L218.903 214.574L222.296 217.959L239.096 201.203C240.035 200.267 240.035 198.755 239.096 197.819Z" fill="#0EFFFF"/>
<path d="M211.245 174.517L189.651 217.59L193.944 219.731L215.538 176.658L211.245 174.517Z" fill="#0EFFFF"/>
<path d="M237.4 213.873H232.6V218.66H237.4V213.873Z" fill="#0EFFFF"/>
<path d="M247 213.873H242.2V218.66H247V213.873Z" fill="#0EFFFF"/>
<path d="M256.6 213.873H251.8V218.66H256.6V213.873Z" fill="#0EFFFF"/>
</svg>
